<?xml version="1.0" encoding="utf-8"?>
<!-- Generator: Adobe Illustrator 19.1.0, SVG Export Plug-In . SVG Version: 6.00 Build 0)  -->
<!DOCTYPE svg PUBLIC "-//W3C//DTD SVG 1.1//EN" "http://www.w3.org/Graphics/SVG/1.1/DTD/svg11.dtd">
<svg version="1.1" id="Layer_1" xmlns="http://www.w3.org/2000/svg" xmlns:xlink="http://www.w3.org/1999/xlink" x="0px" y="0px"
	 viewBox="0 0 362.5 26.4" style="enable-background:new 0 0 362.5 26.4;" xml:space="preserve">
<style type="text/css">
	.st0{fill:#FFFFFF;}
</style>
<g>
	<path class="st0" d="M0,0.6h5.7c3.7,0,6.4,0.5,8.1,1.4c1.8,0.9,3.2,2.4,4.4,4.4c1.1,2,1.7,4.4,1.7,7.1c0,1.9-0.3,3.7-1,5.3
		c-0.6,1.6-1.5,3-2.7,4c-1.1,1.1-2.4,1.8-3.7,2.2c-1.3,0.4-3.6,0.6-6.9,0.6H0V0.6z M4.8,5.2v15.9H7c2.2,0,3.8-0.2,4.8-0.8
		s1.8-1.3,2.4-2.5c0.6-1.2,0.9-2.6,0.9-4.4c0-2.7-0.7-4.7-2.2-6.2c-1.3-1.3-3.5-2-6.5-2H4.8z"/>
	<path class="st0" d="M24.1,0.6h4.8v25.1h-4.8V0.6z"/>
	<path class="st0" d="M47.5,4.1l-3.5,3.1c-1.2-1.7-2.5-2.6-3.8-2.6c-0.6,0-1.1,0.2-1.5,0.5C38.2,5.4,38,5.8,38,6.2
		c0,0.4,0.1,0.8,0.4,1.2c0.4,0.5,1.6,1.6,3.5,3.2c1.8,1.5,2.9,2.5,3.3,2.9c1,1,1.7,1.9,2.1,2.8s0.6,1.9,0.6,2.9
		c0,2.1-0.7,3.8-2.1,5.1c-1.4,1.3-3.3,2-5.6,2c-1.8,0-3.4-0.4-4.7-1.3s-2.5-2.3-3.4-4.1l4-2.4c1.2,2.2,2.6,3.3,4.2,3.3
		c0.8,0,1.5-0.2,2.1-0.7s0.8-1,0.8-1.7c0-0.6-0.2-1.1-0.6-1.7c-0.4-0.6-1.4-1.4-2.8-2.6c-2.7-2.2-4.5-4-5.3-5.2
		c-0.8-1.2-1.2-2.4-1.2-3.6c0-1.7,0.7-3.2,2-4.5c1.3-1.2,3-1.9,4.9-1.9c1.3,0,2.4,0.3,3.6,0.9S46.2,2.5,47.5,4.1z"/>
	<path class="st0" d="M60.2,0.6H65l9.7,25.1h-5l-2-5.2H57.5l-2,5.2h-5L60.2,0.6z M62.6,7.3l-3.4,8.6H66L62.6,7.3z"/>
	<path class="st0" d="M91.6,4.1L88,7.2c-1.2-1.7-2.5-2.6-3.8-2.6c-0.6,0-1.1,0.2-1.5,0.5c-0.4,0.3-0.6,0.7-0.6,1.1
		c0,0.4,0.1,0.8,0.4,1.2c0.4,0.5,1.6,1.6,3.5,3.2c1.8,1.5,2.9,2.5,3.3,2.9c1,1,1.7,1.9,2.1,2.8s0.6,1.9,0.6,2.9
		c0,2.1-0.7,3.8-2.1,5.1c-1.4,1.3-3.3,2-5.6,2c-1.8,0-3.4-0.4-4.7-1.3s-2.5-2.3-3.4-4.1l4-2.4c1.2,2.2,2.6,3.3,4.2,3.3
		c0.8,0,1.5-0.2,2.1-0.7s0.8-1,0.8-1.7c0-0.6-0.2-1.1-0.6-1.7c-0.4-0.6-1.4-1.4-2.8-2.6c-2.7-2.2-4.5-4-5.3-5.2
		c-0.8-1.2-1.2-2.4-1.2-3.6c0-1.7,0.7-3.2,2-4.5c1.3-1.2,3-1.9,4.9-1.9c1.3,0,2.4,0.3,3.6,0.9S90.2,2.5,91.6,4.1z"/>
	<path class="st0" d="M94.1,0.6H108v4.7h-4.6v20.4h-4.9V5.3h-4.5V0.6z"/>
	<path class="st0" d="M111.3,0.6H125v4.7h-9v4.5h9v4.6h-9v6.6h9v4.7h-13.7V0.6z"/>
	<path class="st0" d="M129.8,0.6h5.1c2.8,0,4.8,0.2,5.9,0.7c1.2,0.5,2.1,1.3,2.8,2.5c0.7,1.2,1.1,2.5,1.1,4.1c0,1.7-0.4,3-1.2,4.1
		c-0.8,1.1-2,2-3.6,2.5l6,11.2h-5.2L135,15.1h-0.4v10.6h-4.8V0.6z M134.6,10.5h1.5c1.5,0,2.6-0.2,3.1-0.6s0.9-1.1,0.9-2
		c0-0.5-0.1-1-0.4-1.4c-0.3-0.4-0.7-0.7-1.1-0.9s-1.4-0.3-2.6-0.3h-1.3V10.5z"/>
	<path class="st0" d="M149.5,25.8V4.7h4.4c3.2,0,5.4,0.3,6.9,0.8c2,0.7,3.6,2,4.8,3.7c1.2,1.8,1.7,3.9,1.7,6.3c0,2.1-0.5,4-1.4,5.6
		s-2.1,2.8-3.6,3.6c-1.5,0.8-3.5,1.1-6.1,1.1H149.5z M151.5,23.8h2.4c2.9,0,4.9-0.2,6.1-0.5c1.6-0.5,2.8-1.4,3.7-2.8
		c0.9-1.3,1.4-3,1.4-4.9c0-2-0.5-3.8-1.5-5.2s-2.4-2.4-4.1-3C158.2,7,156,6.8,153,6.8h-1.5V23.8z"/>
	<path class="st0" d="M171,4.7h2.1v21.1H171V4.7z"/>
	<path class="st0" d="M175.8,21.8l1.8-1.1c1.3,2.3,2.7,3.5,4.4,3.5c0.7,0,1.4-0.2,2-0.5c0.6-0.3,1.1-0.8,1.4-1.3
		c0.3-0.6,0.5-1.1,0.5-1.8c0-0.7-0.2-1.4-0.7-2.1c-0.7-0.9-1.9-2.1-3.6-3.4c-1.8-1.3-2.9-2.3-3.3-2.9c-0.7-1-1.1-2.1-1.1-3.2
		c0-0.9,0.2-1.8,0.7-2.5s1.1-1.3,1.9-1.8c0.8-0.4,1.7-0.7,2.6-0.7c1,0,1.9,0.2,2.8,0.7c0.9,0.5,1.8,1.4,2.7,2.7L186,8.9
		c-0.8-1.1-1.5-1.7-2-2.1s-1.2-0.5-1.8-0.5c-0.9,0-1.5,0.3-2.1,0.8s-0.8,1.2-0.8,1.9c0,0.5,0.1,0.9,0.3,1.3c0.2,0.4,0.5,0.9,1,1.4
		c0.3,0.3,1.2,1,2.7,2.1c1.8,1.3,3.1,2.5,3.8,3.6c0.7,1.1,1,2.1,1,3.2c0,1.5-0.6,2.9-1.7,4c-1.2,1.1-2.6,1.7-4.2,1.7
		c-1.3,0-2.4-0.3-3.5-1S176.6,23.5,175.8,21.8z"/>
	<path class="st0" d="M212.2,8.6l-1.7,1.3c-0.9-1.2-2-2.1-3.3-2.7c-1.3-0.6-2.7-0.9-4.2-0.9c-1.7,0-3.2,0.4-4.7,1.2
		s-2.5,1.9-3.3,3.3c-0.8,1.4-1.2,2.9-1.2,4.6c0,2.6,0.9,4.7,2.6,6.4c1.8,1.7,4,2.6,6.7,2.6c3,0,5.4-1.2,7.4-3.5l1.7,1.3
		c-1.1,1.3-2.4,2.4-3.9,3.1c-1.6,0.7-3.3,1.1-5.3,1.1c-3.7,0-6.6-1.2-8.7-3.7c-1.8-2.1-2.7-4.6-2.7-7.5c0-3.1,1.1-5.7,3.2-7.8
		s4.9-3.2,8.1-3.2c2,0,3.7,0.4,5.3,1.2C209.9,6.1,211.2,7.2,212.2,8.6z"/>
	<path class="st0" d="M226.4,4.2c3.2,0,5.9,1.1,8,3.2s3.2,4.8,3.2,7.9c0,3.1-1.1,5.7-3.2,7.9c-2.1,2.1-4.8,3.2-7.8,3.2
		c-3.1,0-5.8-1.1-7.9-3.2s-3.2-4.7-3.2-7.8c0-2,0.5-3.9,1.5-5.6c1-1.7,2.3-3.1,4-4.1C222.6,4.7,224.5,4.2,226.4,4.2z M226.5,6.2
		c-1.6,0-3,0.4-4.4,1.2s-2.5,1.9-3.3,3.3s-1.2,2.9-1.2,4.6c0,2.5,0.9,4.6,2.6,6.3s3.8,2.6,6.3,2.6c1.6,0,3.1-0.4,4.5-1.2
		c1.4-0.8,2.5-1.9,3.3-3.3c0.8-1.4,1.2-2.9,1.2-4.6c0-1.7-0.4-3.2-1.2-4.5c-0.8-1.4-1.9-2.4-3.3-3.2C229.6,6.6,228.1,6.2,226.5,6.2z
		"/>
	<path class="st0" d="M242,4.7h2.1v12.7c0,1.5,0,2.5,0.1,2.8c0.1,0.8,0.3,1.5,0.7,2.1s1,1,1.8,1.4c0.8,0.4,1.6,0.6,2.4,0.6
		c0.7,0,1.4-0.1,2-0.4s1.2-0.7,1.6-1.2s0.7-1.2,0.9-1.9c0.1-0.5,0.2-1.6,0.2-3.3V4.7h2.1v12.7c0,1.9-0.2,3.4-0.6,4.6
		c-0.4,1.2-1.1,2.2-2.2,3c-1.1,0.9-2.4,1.3-4,1.3c-1.7,0-3.2-0.4-4.4-1.2s-2-1.9-2.4-3.2c-0.3-0.8-0.4-2.3-0.4-4.4V4.7z"/>
	<path class="st0" d="M261.1,25.8V4.7h0.5l14,16.2V4.7h2.1v21.1h-0.5l-13.9-16v16H261.1z"/>
	<path class="st0" d="M280.7,6.8V4.7h11.5v2.1h-4.7v19h-2.1v-19H280.7z"/>
	<path class="st0" d="M295.1,22.6c0.5,0,0.9,0.2,1.2,0.5s0.5,0.8,0.5,1.3c0,0.5-0.2,0.9-0.5,1.3s-0.8,0.5-1.2,0.5s-0.9-0.2-1.2-0.5
		c-0.3-0.3-0.5-0.8-0.5-1.3c0-0.5,0.2-0.9,0.5-1.3C294.2,22.8,294.6,22.6,295.1,22.6z"/>
	<path class="st0" d="M316.2,13.4l-1.6,1c-1.4-1.8-3.2-2.7-5.6-2.7c-1.9,0-3.5,0.6-4.7,1.8c-1.3,1.2-1.9,2.7-1.9,4.4
		c0,1.1,0.3,2.2,0.9,3.2s1.4,1.8,2.4,2.3c1,0.6,2.1,0.8,3.4,0.8c2.3,0,4.2-0.9,5.6-2.7l1.6,1c-0.7,1.1-1.7,2-3,2.6
		c-1.3,0.6-2.7,0.9-4.3,0.9c-2.5,0-4.5-0.8-6.1-2.3c-1.6-1.6-2.4-3.5-2.4-5.7c0-1.5,0.4-2.9,1.1-4.2c0.8-1.3,1.8-2.3,3.1-3
		c1.3-0.7,2.8-1.1,4.5-1.1c1,0,2,0.2,3,0.5c1,0.3,1.8,0.7,2.4,1.2C315.1,12,315.7,12.6,316.2,13.4z"/>
	<path class="st0" d="M327.4,9.8c2.4,0,4.4,0.9,6,2.6c1.4,1.6,2.2,3.5,2.2,5.6c0,2.2-0.8,4.1-2.3,5.7c-1.5,1.6-3.5,2.4-5.8,2.4
		c-2.4,0-4.3-0.8-5.9-2.4c-1.5-1.6-2.3-3.5-2.3-5.7c0-2.2,0.7-4,2.2-5.6C323,10.7,325,9.8,327.4,9.8z M327.4,11.7
		c-1.7,0-3.1,0.6-4.3,1.8c-1.2,1.2-1.8,2.7-1.8,4.5c0,1.1,0.3,2.2,0.8,3.2c0.5,1,1.3,1.7,2.2,2.3c0.9,0.5,2,0.8,3.1,0.8
		c1.1,0,2.1-0.3,3.1-0.8c0.9-0.5,1.7-1.3,2.2-2.3c0.5-1,0.8-2,0.8-3.2c0-1.7-0.6-3.2-1.8-4.5C330.5,12.4,329,11.7,327.4,11.7z"/>
	<path class="st0" d="M339.2,10.2h2v2.7c0.7-1,1.4-1.7,2.2-2.2c1-0.6,2.1-0.9,3.2-0.9c0.8,0,1.5,0.1,2.2,0.4s1.2,0.7,1.7,1.2
		c0.4,0.5,0.8,1.2,1.1,2.1c0.7-1.2,1.5-2.2,2.5-2.8c1-0.6,2.1-1,3.2-1c1.1,0,2,0.3,2.9,0.8s1.4,1.3,1.8,2.3s0.6,2.4,0.6,4.4v8.5h-2
		v-8.5c0-1.7-0.1-2.8-0.4-3.4c-0.2-0.6-0.6-1.1-1.2-1.5c-0.6-0.4-1.3-0.6-2.1-0.6c-1,0-1.9,0.3-2.7,0.9s-1.4,1.3-1.8,2.3
		s-0.6,2.5-0.6,4.8v6.1h-2v-8c0-1.9-0.1-3.2-0.4-3.8c-0.2-0.7-0.6-1.2-1.2-1.6c-0.6-0.4-1.3-0.6-2.1-0.6c-0.9,0-1.8,0.3-2.6,0.8
		c-0.8,0.6-1.4,1.3-1.8,2.3s-0.6,2.4-0.6,4.3v6.6h-2V10.2z"/>
</g>
</svg>
