<?xml version="1.0" encoding="utf-8"?>
<!-- Generator: Adobe Illustrator 18.1.1, SVG Export Plug-In . SVG Version: 6.00 Build 0)  -->
<!DOCTYPE svg PUBLIC "-//W3C//DTD SVG 1.1//EN" "http://www.w3.org/Graphics/SVG/1.1/DTD/svg11.dtd">
<svg version="1.1" id="Layer_1" xmlns="http://www.w3.org/2000/svg" xmlns:xlink="http://www.w3.org/1999/xlink" x="0px" y="0px"
	 viewBox="0 297.3 200.1 62.7" enable-background="new 0 297.3 200.1 62.7" xml:space="preserve">
<line display="none" fill="none" stroke="#0066CC" stroke-width="4" stroke-miterlimit="10" x1="149.1" y1="275.7" x2="177.9" y2="275.7"/>
<path fill="#FFFFFF" d="M71.9,328.7L71.9,328.7L71.9,328.7L71.9,328.7z"/>
<path fill="#FFFFFF" d="M43.5,334.2c2.1-2.6,5-6,8.7-10.2c5.1-5.4,9.1-9.6,11.9-12.6c1.4-1.5,2.5-2.7,3.3-3.7
	c0.8-0.9,1.3-1.6,1.6-1.9l0,0l0,0c1.2-1.9,1.9-3.6,1.9-5.2c0-0.4-0.1-0.8-0.2-1.2c-0.2-0.5-0.5-0.9-1-1.2c-0.5-0.3-1-0.4-1.7-0.4
	c-1.1,0-2.5,0.5-4.3,1.4c-4.7,2.6-11.7,8.5-21.2,17.9c1.7-2.3,3.1-4.3,4.1-6.1c0.8-1.3,1.3-2.4,1.7-3.4c0.4-1,0.6-1.8,0.6-2.5
	c0-0.9-0.2-1.6-0.7-2c-0.2-0.2-0.5-0.4-0.9-0.5c-0.3-0.1-0.7-0.2-1.1-0.2c-0.9,0-2.1,0.4-3.6,1.2c-3.9,2.1-10,7-18.2,14.6
	c2.5-3.2,4.5-6,6-8.3c1-1.5,1.7-2.9,2.2-4c0.5-1.2,0.7-2.1,0.7-2.9c0-0.9-0.2-1.6-0.7-2.2c-0.2-0.3-0.5-0.4-0.9-0.6
	c-0.3-0.1-0.7-0.2-1.1-0.2c-1.3,0-2.8,0.6-4.8,1.7s-4.2,2.7-6.9,4.9c-4.1,3.4-7.5,6.6-10.2,9.7l0,0c-1.9,2.2-3.3,3.8-4.2,5.1
	c-0.5,0.6-0.8,1.1-1.1,1.5c-0.1,0.2-0.2,0.4-0.3,0.5c-0.1,0.1-0.1,0.3-0.1,0.4c0,0.1,0,0.2,0.1,0.4c0.1,0.2,0.2,0.3,0.4,0.4
	c0.2,0.1,0.4,0.1,0.6,0.1c0.2,0,0.4-0.1,0.6-0.2c0.2-0.1,0.4-0.3,0.6-0.6c6.8-7.5,12-12.7,15.6-15.7c2.4-2,4.4-3.4,6-4.4
	c0.8-0.5,1.5-0.9,2.1-1.1c0.6-0.2,1-0.3,1.4-0.3c0.2,0,0.3,0.1,0.4,0.1c0.1,0.1,0.1,0.2,0.1,0.4c0,0.3-0.1,0.8-0.5,1.4
	c-1,2-3.5,5.4-7.5,10.1l-15,16.9c-2.7,3-4.7,5.4-6.1,7c-0.7,0.8-1.2,1.5-1.5,2c-0.2,0.3-0.3,0.5-0.4,0.7c-0.1,0.2-0.2,0.3-0.2,0.5
	c0,0.3,0.1,0.5,0.3,0.7c0.2,0.2,0.4,0.4,0.7,0.6l0,0c0.5,0.4,1,0.6,1.5,0.6c0.1,0,0.1,0,0.2,0c0.1,0,0.1-0.1,0.2-0.2
	c0.3-0.2,0.7-0.7,1.4-1.3c0.6-0.7,1.5-1.6,2.5-2.7l4.5-5l13-12.8c5-4.8,9.6-8.7,13.8-11.9c2.3-1.7,4.1-3,5.5-3.8
	c0.7-0.4,1.3-0.7,1.8-0.9c0.5-0.2,0.8-0.3,1-0.3c0.2,0,0.2,0,0.3,0.1c0,0,0.1,0.1,0.1,0.3c0,0.1-0.1,0.4-0.2,0.7
	c-0.5,1.2-1.8,3.3-4.1,6.2c-2.2,3-5.3,6.8-9.3,11.5c-4.5,5.4-8,9.5-10.2,12.4c-1.1,1.4-2,2.6-2.6,3.4c-0.3,0.4-0.5,0.8-0.7,1
	c-0.1,0.1-0.1,0.3-0.2,0.4c0,0.1-0.1,0.2-0.1,0.3c0,0.2,0.1,0.5,0.2,0.7c0.1,0.2,0.3,0.4,0.6,0.6c0.2,0.2,0.5,0.4,0.7,0.5
	c0.2,0.1,0.4,0.2,0.7,0.2c0.1,0,0.1,0,0.1,0c0,0,0.1,0,0.1-0.1c0.1-0.1,0.2-0.2,0.4-0.4c0.6-0.6,1.9-1.9,3.7-4
	c1.9-2.1,4.4-4.9,7.6-8.4c4.2-4.7,7.6-8.4,10.2-11c2.7-2.7,6.8-6.3,12.2-10.8c3.4-2.8,6.2-5,8.2-6.4c1-0.7,1.9-1.2,2.6-1.6
	c0.7-0.3,1.2-0.5,1.5-0.5c0.2,0,0.2,0,0.2,0.1s0.1,0.1,0.1,0.2c0,0.2-0.1,0.5-0.2,0.8c-0.5,1-1.7,2.6-3.6,4.5l0,0
	c-7.8,7.8-13.1,13.3-15.9,16.4c-4,4.4-7,8.2-9,11.2c-1,1.5-1.8,2.9-2.3,4.1c-0.5,1.2-0.8,2.2-0.8,3.1c0,0.5,0.1,0.9,0.2,1.2
	c0.2,0.5,0.6,1,1,1.3c0.5,0.3,1.1,0.4,1.8,0.4c0.7,0,1.2-0.1,1.6-0.2c0.2-0.1,0.4-0.2,0.5-0.4c0.1-0.2,0.2-0.4,0.2-0.6
	c0-0.1,0-0.2-0.1-0.2c-0.1-0.1-0.2-0.2-0.2-0.2c-0.1-0.1-0.3-0.1-0.5-0.2c-0.2,0-0.4-0.1-0.7-0.1c-0.4,0-0.6-0.1-0.8-0.2
	s-0.2-0.2-0.2-0.4c0-0.1,0.1-0.4,0.2-0.7C40.2,338.8,41.4,336.9,43.5,334.2z"/>
<path fill="#FFFFFF" d="M9,316.4L9,316.4L9,316.4z"/>
<path fill="#FFFFFF" d="M176.1,338.7L176.1,338.7L176.1,338.7L176.1,338.7z"/>
<path fill="#FFFFFF" d="M77.9,325.2c-0.1,0-0.2-0.1-0.3-0.1c0-0.2-0.1-0.4-0.1-0.5c-0.2-0.4-0.5-0.6-0.8-0.8
	c-0.4-0.2-0.8-0.2-1.4-0.2c-1.4,0-3,0.5-4.9,1.5c-1.9,1-4.1,2.5-6.5,4.5l-8.9,7.1c-3.4,2.6-6.1,4-8,4.4l0,0l0,0
	c-0.3,0.1-0.5,0.2-0.7,0.4c-0.2,0.2-0.3,0.4-0.3,0.7c0,0.2,0,0.4,0.2,0.5c0.1,0.1,0.2,0.1,0.2,0.2c0.1,0,0.2,0,0.3,0
	c1,0,2.1-0.3,3.5-1c1.3-0.6,2.9-1.6,4.6-2.8l0,0l5.8-4.5c-0.6,1.4-0.8,2.5-0.8,3.5l0,0c0,0.8,0.1,1.5,0.3,2.1
	c0.3,0.9,0.9,1.6,1.8,2.1c0.8,0.5,1.9,0.7,3.2,0.7c0.8,0,1.4-0.1,1.8-0.2c0.2-0.1,0.4-0.1,0.5-0.3c0.1-0.1,0.2-0.3,0.2-0.5
	c0-0.1-0.1-0.3-0.2-0.4c-0.1-0.2-0.3-0.2-0.5-0.3c-0.2-0.1-0.5-0.1-0.8-0.2l0,0l0,0c-0.6-0.1-1-0.1-1.4-0.2
	c-0.4-0.1-0.7-0.2-0.8-0.2c-0.4-0.2-0.6-0.4-0.8-0.7c-0.2-0.3-0.3-0.6-0.3-1.1c0-0.3,0.1-0.7,0.3-1.2c0.7-1.5,2.4-3.7,5.2-6.6
	c1.9-1.9,3.4-3.3,4.7-4.3c0.6-0.5,1.2-0.8,1.7-1c0.5-0.2,0.9-0.3,1.1-0.3c0.1,0,0.1,0,0.1,0s0,0,0,0.1l0,0.2
	c-1.2,0.5-2.5,1.5-3.9,2.9c-0.9,0.8-1.5,1.6-1.9,2.2c-0.4,0.7-0.7,1.3-0.7,1.9c0,0.2,0,0.4,0.1,0.6c0.1,0.3,0.3,0.5,0.5,0.6
	c0.2,0.1,0.5,0.2,0.9,0.2c0.7,0,1.5-0.3,2.2-0.7c0.7-0.5,1.4-1.2,2.2-2.1c1.1-1.5,2-2.9,2.4-4.4c0.2,0,0.4-0.1,0.6-0.2
	c0.1-0.1,0.2-0.2,0.2-0.3c0.1-0.1,0.1-0.2,0.1-0.4c0-0.1,0-0.3-0.1-0.4C78.2,325.5,78.1,325.3,77.9,325.2z M73.5,330.1
	c-0.5,0.6-1,1.1-1.3,1.4c-0.3,0.3-0.6,0.4-0.7,0.4l0,0c0,0,0-0.1,0.1-0.2c0.2-0.4,0.8-1.1,1.7-2l0,0l0,0c0.6-0.6,1.2-1.1,1.7-1.5
	C74.4,328.8,74,329.4,73.5,330.1L73.5,330.1z"/>
<path fill="#FFFFFF" d="M107.9,336c0.8-0.9,1.2-1.8,1.2-2.7c0-0.3,0-0.6-0.2-0.8c-0.1-0.1-0.2-0.2-0.3-0.3c-0.1-0.1-0.2-0.1-0.4-0.1
	h-0.1l-3.1,2.3c-2.5,1.8-4.9,3.2-7.2,4.2l0,0c-3.3,1.5-6.3,2.3-9.1,2.3c-1.9,0-3.3-0.4-4.2-1.2c-0.4-0.4-0.8-0.8-1-1.4
	c-0.2-0.6-0.3-1.2-0.3-2c0-2,0.6-4.2,1.9-6.7c1.3-2.5,3.2-5.3,5.8-8.4c5.6-5.6,11.8-10.6,18.4-14.9c6.8-4.5,12.2-6.7,16-6.7
	c0.9,0,1.5,0.2,1.8,0.5c0.2,0.2,0.3,0.4,0.4,0.6c0.1,0.3,0.2,0.6,0.2,1c0,0.5-0.1,0.9-0.3,1.4c-3,1.2-6.4,3.7-10.4,7.2l0,0
	c-2.3,2.1-4,3.9-5.1,5.6c-1.1,1.7-1.7,3.1-1.7,4.5c0,0.4,0.1,0.8,0.2,1.2c0.2,0.5,0.5,0.9,1,1.2c0.5,0.3,1,0.4,1.7,0.4
	c1.5,0,3.2-0.6,5-1.9c1.8-1.2,3.7-3.1,5.7-5.5c3.7-4.4,6-8.3,6.8-11.6c0.7-0.2,1.2-0.4,1.6-0.6c0.2-0.1,0.4-0.2,0.5-0.4
	c0.1-0.1,0.2-0.3,0.2-0.5c0-0.2-0.1-0.5-0.2-0.7c-0.1-0.1-0.2-0.2-0.3-0.2c-0.1,0-0.2-0.1-0.4-0.1c-0.3,0-0.7,0.1-1.2,0.3
	c-0.1-1.5-0.7-2.7-1.6-3.5c-1-0.9-2.4-1.3-4.2-1.3c-3.9,0-9.4,1.8-16.6,5.5c-6.4,3.2-12.4,7.6-17.9,13.1c-3.4,3.4-6,6.6-7.7,9.8
	c-1.7,3.1-2.6,6.1-2.6,9c0,2.7,1,5,3,6.8c1.9,1.7,4.3,2.5,7,2.5c2.4,0,4.9-0.5,7.4-1.6c2.5-1,4.8-2.2,6.8-3.6l0,0
	C105.9,337.9,107.1,336.9,107.9,336z M120.2,314c-1.8,2.1-3.4,3.7-4.7,4.8c-0.6,0.5-1.2,0.9-1.7,1.2c-0.5,0.3-0.9,0.4-1.2,0.4
	c-0.1,0-0.1,0-0.1,0c0,0,0,0-0.1-0.1c0-0.1,0-0.2,0-0.3c0-0.2,0.1-0.5,0.3-0.8c0.6-1.2,2-3.1,4.4-5.7c2.9-3.2,5.9-5.6,9.2-7.4
	C125,308.1,123,310.8,120.2,314L120.2,314z"/>
<path fill="#FFFFFF" d="M199.8,325.6c-0.2-0.5-0.5-0.8-1-1.1s-1-0.3-1.7-0.3c-1.2,0-2.5,0.4-4,1.1c-1.4,0.7-3,1.8-4.6,3.2l0,0
	c-3,2.6-5.1,5-6.1,7.4c-1.7,0.4-3.8,1.4-6.3,2.8l0,0c-2.4,1.4-4.2,2.2-5.4,2.4l0,0c-0.1,0-0.2,0-0.3,0.1h0l0,0l-1,0
	c-0.1,0-0.2-0.1-0.3-0.1c0,0-0.1-0.1-0.1-0.2c0,0,0-0.1,0.1-0.1c0.2-0.3,0.7-0.9,1.4-1.8c0.8-0.9,1.8-2,3.1-3.4
	c1.6-1.7,2.8-3.1,3.6-4.4c0.8-1.3,1.2-2.3,1.2-3.1c0-0.5-0.1-1-0.3-1.4c-0.3-0.6-0.7-1.1-1.3-1.4c-0.5-0.2-1.1-0.4-1.8-0.4
	c0.2-0.3,0.3-0.5,0.4-0.7c0.1-0.3,0.2-0.6,0.2-0.9c0-0.1,0-0.3-0.1-0.4c-0.1-0.2-0.2-0.4-0.4-0.4s-0.4-0.1-0.6-0.1
	c-0.2,0-0.4,0.1-0.6,0.1c-0.6,0.3-1.4,0.9-2.4,1.8c-0.7,0.6-1.2,1.2-1.6,1.6c-0.4,0.5-0.6,0.9-0.6,1.3c0,0.1,0,0.2,0,0.5
	c0,0.2,0.1,0.4,0.1,0.7c-1.6,1.8-4,3.9-7,6.4l0,0c-3.4,2.9-6,4.7-7.7,5.4l0,0l0,0c-1.1,0.5-2.1,0.8-2.7,1l0,0
	c-0.2,0-0.3,0.1-0.4,0.1c-0.2,0-0.3,0-0.5-0.1c-0.3,0-0.5-0.1-0.7-0.2c-0.1,0-0.1-0.1-0.1-0.1c0,0,0-0.1,0-0.2
	c0-0.2,0.1-0.5,0.3-0.9c0.6-1.3,2.1-3.3,4.6-6.2c1.7-1.9,2.9-3.4,3.7-4.5c0.4-0.5,0.7-1,1-1.3c0.1-0.2,0.2-0.3,0.3-0.5
	c0.1-0.1,0.1-0.2,0.1-0.4c0-0.4-0.2-0.8-0.5-1.2c-0.3-0.3-0.7-0.6-1.1-0.6c-0.2,0-0.3,0.1-0.5,0.2c-0.3,0.2-0.6,0.4-1,0.8
	c-1.3,1.1-3.4,3.3-6.3,6.5c-2.2,2.4-4,4.3-5.4,5.5c-0.7,0.6-1.3,1.1-1.8,1.3c-0.5,0.3-0.9,0.4-1.1,0.4c-0.1,0-0.2,0-0.2-0.1l0,0
	c0,0,0-0.1,0-0.1c0-0.6,0.3-1.5,1.1-2.7s1.8-2.6,3.3-4.2c1.5-1.7,2.6-3,3.4-4.1c0.4-0.5,0.7-1,0.9-1.4c0.2-0.4,0.3-0.7,0.3-1
	c0-0.2,0-0.5-0.2-0.7c-0.2-0.3-0.4-0.5-0.8-0.7c-0.3-0.1-0.8-0.2-1.2-0.2c-0.5,0-1.1,0.2-1.6,0.6l0,0l0,0c-1.3,1.1-2.3,1.9-2.9,2.5
	c-3.6,3.1-6.3,5.3-8.1,6.7l0,0c-2,1.6-3.7,2.8-5,3.7c-1.3,0.9-2.3,1.5-2.9,1.8l0,0c-1.1,0.5-2,0.8-2.7,0.9l0,0
	c-0.2,0-0.3,0.1-0.5,0.1c-0.5,0-0.9-0.1-1.1-0.2c-0.1-0.1-0.2-0.1-0.2-0.2c0,0,0-0.1-0.1-0.2c0-0.5,0.2-1.2,0.6-2.2
	c0.4-0.9,1-2.1,1.9-3.4l0,0c1.6-2.6,3-4.3,4-5.1l0,0c4.7-3.5,9.1-7.1,13.1-10.8l0,0c3.2-3,5.6-5.5,7.2-7.7c1.6-2.2,2.4-4,2.4-5.4
	c0-0.6-0.1-1-0.5-1.4c-0.2-0.2-0.4-0.3-0.6-0.4c-0.2-0.1-0.5-0.1-0.7-0.1c-0.6,0-1.3,0.2-2.1,0.6c-2.4,1.2-5.9,4.1-10.6,8.8
	c-5.6,5.6-10,10.8-13.2,15.6c-2.7,2.2-5.3,4.1-7.8,5.9l0,0l0,0c-3.4,2.5-5.8,4.2-7.2,4.9l0,0l0,0c-1.2,0.6-2.2,1-3,1.1l0,0
	c-0.4,0.1-0.8,0.2-1,0.3c-0.1,0.1-0.2,0.2-0.3,0.3c-0.1,0.1-0.1,0.3-0.1,0.4c0,0.1,0,0.2,0,0.3c0,0.1,0.1,0.3,0.3,0.3
	s0.3,0.1,0.4,0.1c1.1,0,2.4-0.4,4-1.1c1.6-0.7,3.5-1.8,5.6-3.3l0,0l6.9-5.2c-1.3,2.9-2,5.1-2,6.8c0,0.9,0.2,1.7,0.8,2.2
	c0.3,0.3,0.6,0.5,1,0.6c0.4,0.1,0.8,0.2,1.3,0.2c0.5,0,0.8,0,1.1-0.1c0,0,0,0,0,0c1.1,0,2.6-0.5,4.4-1.5c1.8-1,4.1-2.5,6.7-4.5l0,0
	l6.5-5.4l-1.9,2.3l0,0c-1.6,2.2-2.4,4.2-2.4,6c0,0.8,0.2,1.4,0.6,1.9c0.2,0.2,0.5,0.4,0.7,0.5c0.3,0.1,0.6,0.2,1,0.2
	c1,0,2.1-0.5,3.5-1.4c1.1-0.7,2.3-1.7,3.7-3c-0.4,1-0.7,1.9-0.7,2.7c0,0.4,0.1,0.7,0.2,1c0.2,0.5,0.6,0.8,1,1s1.1,0.3,1.8,0.3
	c0.4,0,0.7,0,0.9-0.1c0.1,0,0.1,0,0.2,0c0.9,0,2-0.3,3.3-0.9c3.9-1.8,9.5-6.2,17-13.3c0,0,0.1,0,0.1-0.1c0.2-0.1,0.7-0.3,1.3-0.5
	c0.4-0.1,0.8-0.2,1.1-0.3c0.3-0.1,0.5-0.1,0.6-0.1s0.2,0,0.2,0s0,0,0,0c0,0,0,0,0,0.1c0,0-0.1,0.1-0.2,0.2c-0.3,0.4-1,1.1-2.1,2.2
	c-2,1.9-3.4,3.6-4.4,4.9l0,0c-1.6,2.1-2.4,3.9-2.4,5.4c0,0.4,0.1,0.7,0.2,1c0.2,0.5,0.5,0.8,0.9,1.1c0.4,0.2,1,0.3,1.6,0.3
	c0.5,0,0.9,0,1.2-0.1c0,0,0.1,0,0.1,0c0.7,0,1.6-0.2,2.6-0.6c1-0.4,2.2-1,3.5-1.7l0,0c1.5-0.9,2.7-1.5,3.7-2
	c0.7-0.4,1.3-0.6,1.8-0.8c-0.1,0.5-0.1,1-0.1,1.4l0,0c0,0.7,0.1,1.2,0.3,1.7c0.3,0.7,0.8,1.3,1.5,1.7c0.7,0.4,1.6,0.5,2.7,0.5
	c1.3,0,2.3-0.1,3-0.2c0.4-0.1,0.6-0.2,0.8-0.3c0.1-0.1,0.2-0.1,0.3-0.2c0.1-0.1,0.1-0.2,0.1-0.4c0-0.1,0-0.3-0.1-0.4
	c-0.1-0.2-0.3-0.3-0.5-0.3c-0.2-0.1-0.5-0.1-0.8-0.1l0,0c-0.5,0-1-0.1-1.3-0.1c-0.3,0-0.6-0.1-0.8-0.2c-0.3-0.1-0.6-0.4-0.7-0.7
	s-0.3-0.7-0.3-1.2c0-0.7,0.1-1.3,0.4-1.9c2.8-0.9,5.4-2.2,8.1-3.9l0,0c1.8-1.1,3.2-2.2,4.1-3.3c0.9-1.1,1.4-2.1,1.4-3.2
	C200,326.3,199.9,325.9,199.8,325.6z M190.9,329.8c1.2-1.3,2.2-2.2,3.2-2.8c0.9-0.6,1.7-0.9,2.3-0.9c0.1,0,0.2,0,0.2,0
	c0.1,0,0.1,0.1,0.1,0.1c0,0.1,0.1,0.2,0.1,0.3c0,0.3-0.1,0.6-0.2,0.9c-0.5,1-1.8,2.4-4,4l0,0c-1.9,1.4-3.7,2.6-5.4,3.5
	C187.9,333.4,189.1,331.7,190.9,329.8L190.9,329.8L190.9,329.8z M141.4,315.5c2.9-3.3,5.2-5.7,6.8-7.3c0.8-0.8,1.5-1.4,2-1.8
	c0.2-0.2,0.5-0.3,0.6-0.4s0.3-0.1,0.3-0.1c0.2,0,0.2,0,0.2,0.1l0,0c0,0,0,0.1,0,0.1c0,0.7-0.4,1.8-1.3,3.1c-1.3,2-3.6,4.6-6.8,7.7
	c-2.9,2.8-6.6,6-11.1,9.7C134,324,137.1,320.4,141.4,315.5L141.4,315.5z"/>
<path fill="#FFFFFF" d="M83.2,341.5L83.2,341.5L83.2,341.5L83.2,341.5z"/>
<g>
	<path fill="#FFFFFF" d="M8.3,350.4l4.4,9.4h-1l-1.5-3.1H6.1l-1.5,3.1h-1l4.4-9.4H8.3z M8.2,352.4l-1.6,3.4h3.2L8.2,352.4z"/>
	<path fill="#FFFFFF" d="M14,350.4h0.9v9.4H14V350.4z"/>
	<path fill="#FFFFFF" d="M17.1,350.4H19c1,0,1.7,0,2.1,0.1c0.6,0.1,1,0.4,1.4,0.8c0.3,0.4,0.5,0.9,0.5,1.5c0,0.5-0.1,1-0.4,1.3
		c-0.2,0.4-0.6,0.7-1,0.9c-0.4,0.2-1.1,0.3-1.8,0.3l3.4,4.3h-1.2l-3.4-4.3H18v4.3h-0.9V350.4z M18,351.3v3.2h1.6
		c0.6,0,1.1-0.1,1.4-0.2c0.3-0.1,0.5-0.3,0.7-0.6c0.2-0.3,0.3-0.6,0.3-0.9s-0.1-0.6-0.3-0.9c-0.2-0.3-0.4-0.4-0.7-0.6
		c-0.3-0.1-0.7-0.2-1.4-0.2L18,351.3L18,351.3z"/>
	<path fill="#FFFFFF" d="M37.3,352.1l-0.7,0.6c-0.4-0.5-0.9-0.9-1.5-1.2c-0.6-0.3-1.2-0.4-1.9-0.4c-0.7,0-1.4,0.2-2.1,0.5
		c-0.6,0.4-1.1,0.8-1.5,1.4c-0.3,0.6-0.5,1.3-0.5,2c0,1.1,0.4,2.1,1.2,2.9s1.8,1.1,3,1.1c1.3,0,2.4-0.5,3.3-1.5l0.7,0.6
		c-0.5,0.6-1,1.1-1.7,1.4c-0.7,0.3-1.5,0.5-2.3,0.5c-1.6,0-2.9-0.5-3.9-1.6c-0.8-0.9-1.2-2-1.2-3.3c0-1.4,0.5-2.5,1.4-3.5
		c1-0.9,2.2-1.4,3.6-1.4c0.9,0,1.7,0.2,2.4,0.5C36.2,351,36.8,351.5,37.3,352.1z"/>
	<path fill="#FFFFFF" d="M43.6,350.2c1.4,0,2.6,0.5,3.6,1.4c1,0.9,1.4,2.1,1.4,3.5c0,1.4-0.5,2.5-1.4,3.5c-1,1-2.1,1.4-3.5,1.4
		c-1.4,0-2.6-0.5-3.5-1.4c-1-0.9-1.4-2.1-1.4-3.4c0-0.9,0.2-1.7,0.7-2.5s1-1.4,1.8-1.8C41.9,350.4,42.7,350.2,43.6,350.2z
		 M43.6,351.1c-0.7,0-1.3,0.2-2,0.5s-1.1,0.8-1.5,1.5c-0.3,0.6-0.5,1.3-0.5,2c0,1.1,0.4,2.1,1.2,2.8c0.8,0.8,1.7,1.1,2.8,1.1
		c0.7,0,1.4-0.2,2-0.5c0.6-0.4,1.1-0.8,1.4-1.4c0.3-0.6,0.5-1.3,0.5-2s-0.2-1.4-0.5-2c-0.4-0.6-0.8-1.1-1.5-1.4
		C45,351.3,44.4,351.1,43.6,351.1z"/>
	<path fill="#FFFFFF" d="M50.5,359.8v-9.4h0.2l6.2,7.2v-7.2h0.9v9.4h-0.2l-6.2-7.1v7.1L50.5,359.8L50.5,359.8z"/>
	<path fill="#FFFFFF" d="M60.1,359.8v-9.4H62c1.4,0,2.4,0.1,3,0.3c0.9,0.3,1.6,0.9,2.1,1.7c0.5,0.8,0.8,1.7,0.8,2.8
		c0,0.9-0.2,1.8-0.6,2.5c-0.4,0.7-0.9,1.2-1.6,1.6c-0.6,0.3-1.6,0.5-2.7,0.5L60.1,359.8L60.1,359.8z M61,358.9h1.1
		c1.3,0,2.2-0.1,2.7-0.2c0.7-0.2,1.3-0.6,1.7-1.2c0.4-0.6,0.6-1.3,0.6-2.2c0-0.9-0.2-1.7-0.7-2.3c-0.4-0.6-1-1.1-1.8-1.3
		c-0.6-0.2-1.5-0.3-2.9-0.3H61L61,358.9L61,358.9z"/>
	<path fill="#FFFFFF" d="M69.7,350.4h0.9v9.4h-0.9V350.4z"/>
	<path fill="#FFFFFF" d="M71.8,351.3v-0.9h5.1v0.9h-2.1v8.4h-1v-8.4H71.8z"/>
	<path fill="#FFFFFF" d="M78.2,350.4h0.9v9.4h-0.9V350.4z"/>
	<path fill="#FFFFFF" d="M85.7,350.2c1.4,0,2.6,0.5,3.6,1.4c1,0.9,1.4,2.1,1.4,3.5c0,1.4-0.5,2.5-1.4,3.5c-1,1-2.1,1.4-3.5,1.4
		c-1.4,0-2.6-0.5-3.5-1.4c-1-0.9-1.4-2.1-1.4-3.4c0-0.9,0.2-1.7,0.7-2.5c0.4-0.8,1-1.4,1.8-1.8C84,350.4,84.8,350.2,85.7,350.2z
		 M85.7,351.1c-0.7,0-1.3,0.2-2,0.5s-1.1,0.8-1.5,1.5c-0.3,0.6-0.5,1.3-0.5,2c0,1.1,0.4,2.1,1.2,2.8c0.8,0.8,1.7,1.1,2.8,1.1
		c0.7,0,1.4-0.2,2-0.5c0.6-0.4,1.1-0.8,1.4-1.4c0.3-0.6,0.5-1.3,0.5-2s-0.2-1.4-0.5-2c-0.4-0.6-0.8-1.1-1.5-1.4
		C87.1,351.3,86.4,351.1,85.7,351.1z"/>
	<path fill="#FFFFFF" d="M92.6,359.8v-9.4h0.2l6.2,7.2v-7.2h0.9v9.4h-0.2l-6.2-7.1v7.1L92.6,359.8L92.6,359.8z"/>
	<path fill="#FFFFFF" d="M102,350.4h0.9v9.4H102V350.4z"/>
	<path fill="#FFFFFF" d="M105.1,359.8v-9.4h0.2l6.2,7.2v-7.2h0.9v9.4h-0.2l-6.2-7.1v7.1L105.1,359.8L105.1,359.8z"/>
	<path fill="#FFFFFF" d="M123.8,352l-0.7,0.7c-0.5-0.5-1.1-0.9-1.7-1.2c-0.6-0.3-1.2-0.4-1.8-0.4c-0.7,0-1.4,0.2-2.1,0.5
		s-1.2,0.8-1.5,1.5c-0.4,0.6-0.5,1.3-0.5,2s0.2,1.4,0.6,2c0.4,0.6,0.9,1.1,1.6,1.5c0.7,0.4,1.4,0.5,2.2,0.5c1,0,1.8-0.3,2.4-0.8
		c0.7-0.5,1.1-1.2,1.2-2.1h-3v-0.9h4c0,1.4-0.4,2.6-1.3,3.4s-2,1.3-3.4,1.3c-1.7,0-3.1-0.6-4.1-1.8c-0.8-0.9-1.2-2-1.2-3.1
		c0-0.9,0.2-1.7,0.7-2.5s1.1-1.4,1.8-1.8c0.8-0.4,1.7-0.6,2.6-0.6c0.8,0,1.5,0.1,2.2,0.4C122.4,350.9,123.1,351.4,123.8,352z"/>
	<path fill="#FFFFFF" d="M136.8,356.3l0.6,0.7c-0.4,0.4-0.8,0.7-1.2,0.9c0.3,0.2,0.6,0.6,1,1c0.3,0.3,0.6,0.6,0.8,0.9h-1.3l-1.2-1.3
		c-0.8,0.6-1.4,1-1.9,1.2c-0.5,0.2-1,0.3-1.5,0.3c-0.7,0-1.3-0.2-1.7-0.6c-0.4-0.4-0.7-0.9-0.7-1.5c0-0.5,0.1-0.9,0.4-1.4
		c0.3-0.5,0.9-1.1,1.8-1.8c-0.5-0.6-0.8-1.1-1-1.4c-0.1-0.3-0.2-0.6-0.2-0.8c0-0.5,0.2-0.9,0.5-1.2c0.4-0.4,0.9-0.5,1.6-0.5
		c0.4,0,0.7,0.1,1.1,0.2c0.3,0.2,0.6,0.4,0.7,0.6c0.2,0.3,0.3,0.5,0.3,0.8c0,0.3-0.1,0.6-0.3,1c-0.2,0.4-0.7,0.8-1.3,1.4l1.4,1.5
		l0.9,0.9C136.1,356.9,136.5,356.6,136.8,356.3z M132.6,355.4c-0.8,0.6-1.3,1.1-1.6,1.4s-0.4,0.7-0.4,1c0,0.4,0.2,0.7,0.5,0.9
		c0.3,0.3,0.7,0.4,1.1,0.4c0.3,0,0.7-0.1,1-0.2c0.5-0.2,1.1-0.6,1.7-1.1l-1.5-1.5C133.2,356,132.9,355.7,132.6,355.4z M132.7,354.1
		c0.5-0.4,0.8-0.7,1-1c0.2-0.2,0.2-0.5,0.2-0.6c0-0.2-0.1-0.4-0.3-0.6c-0.2-0.2-0.5-0.2-0.8-0.2c-0.3,0-0.6,0.1-0.8,0.2
		c-0.2,0.2-0.3,0.4-0.3,0.6c0,0.2,0,0.3,0.1,0.5C132,353.3,132.3,353.7,132.7,354.1z"/>
	<path fill="#FFFFFF" d="M143.1,350.4h0.9v3.9h4.8v-3.9h0.9v9.4h-0.9v-4.5h-4.8v4.5h-0.9V350.4z"/>
	<path fill="#FFFFFF" d="M152.1,350.4h5.4v0.9H153v2.9h4.4v0.9H153v3.7h4.4v0.9h-5.3L152.1,350.4L152.1,350.4z"/>
	<path fill="#FFFFFF" d="M162.9,350.4l4.4,9.4h-1l-1.5-3.1h-4l-1.5,3.1h-1l4.4-9.4H162.9z M162.7,352.4l-1.6,3.4h3.2L162.7,352.4z"
		/>
	<path fill="#FFFFFF" d="M166.7,351.3v-0.9h5.1v0.9h-2.1v8.4h-1v-8.4H166.7z"/>
	<path fill="#FFFFFF" d="M173,350.4h0.9v9.4H173V350.4z"/>
	<path fill="#FFFFFF" d="M176.1,359.8v-9.4h0.2l6.2,7.2v-7.2h0.9v9.4h-0.2l-6.2-7.1v7.1L176.1,359.8L176.1,359.8z"/>
	<path fill="#FFFFFF" d="M194.8,352l-0.7,0.7c-0.5-0.5-1.1-0.9-1.7-1.2c-0.6-0.3-1.2-0.4-1.8-0.4c-0.7,0-1.4,0.2-2.1,0.5
		s-1.2,0.8-1.5,1.5c-0.4,0.6-0.5,1.3-0.5,2s0.2,1.4,0.6,2c0.4,0.6,0.9,1.1,1.6,1.5s1.4,0.5,2.2,0.5c1,0,1.8-0.3,2.4-0.8
		c0.7-0.5,1.1-1.2,1.2-2.1h-3v-0.9h4c0,1.4-0.4,2.6-1.3,3.4s-2,1.3-3.4,1.3c-1.7,0-3.1-0.6-4.1-1.8c-0.8-0.9-1.2-2-1.2-3.1
		c0-0.9,0.2-1.7,0.7-2.5s1.1-1.4,1.8-1.8c0.8-0.4,1.7-0.6,2.6-0.6c0.8,0,1.5,0.1,2.2,0.4C193.4,350.9,194.1,351.4,194.8,352z"/>
</g>
</svg>
