<?xml version="1.0" encoding="utf-8"?>
<!-- Generator: Adobe Illustrator 18.1.1, SVG Export Plug-In . SVG Version: 6.00 Build 0)  -->
<!DOCTYPE svg PUBLIC "-//W3C//DTD SVG 1.1//EN" "http://www.w3.org/Graphics/SVG/1.1/DTD/svg11.dtd">
<svg version="1.1" id="Layer_1" xmlns="http://www.w3.org/2000/svg" xmlns:xlink="http://www.w3.org/1999/xlink" x="0px" y="0px"
	 viewBox="0 0 98.9 63.5" enable-background="new 0 0 98.9 63.5" xml:space="preserve">
<path fill="#FFFFFF" d="M60.7,50.7c2.9-3.7,7-8.4,12.2-14.2C80,29,85.6,23.1,89.5,18.9c2-2.1,3.5-3.8,4.6-5.1s1.9-2.2,2.2-2.7l0,0v0
	c1.7-2.6,2.6-5.1,2.6-7.3c0-0.6-0.1-1.2-0.2-1.6c-0.3-0.7-0.7-1.3-1.4-1.7C96.7,0.2,95.9,0,94.9,0c-1.6,0-3.5,0.7-5.9,2
	C82.5,5.6,72.7,13.9,59.5,27c2.4-3.2,4.3-6,5.7-8.4c1.1-1.8,1.9-3.4,2.4-4.8s0.8-2.5,0.8-3.5c0-1.2-0.3-2.2-0.9-2.8
	c-0.3-0.3-0.7-0.6-1.2-0.7c-0.5-0.2-1-0.2-1.6-0.2c-1.3,0-2.9,0.6-5,1.7c-5.5,2.9-13.9,9.7-25.4,20.4c3.5-4.5,6.3-8.4,8.3-11.6
	c1.4-2.2,2.4-4,3.1-5.6c0.7-1.6,1-2.9,1-4.1c0-1.3-0.3-2.3-0.9-3c-0.3-0.4-0.7-0.6-1.2-0.8c-0.5-0.2-1-0.3-1.6-0.3
	c-1.8,0-4,0.8-6.7,2.3c-2.7,1.5-5.9,3.8-9.6,6.9c-5.7,4.7-10.5,9.2-14.2,13.5l0,0c-2.6,3-4.6,5.3-5.9,7.1C6,33.8,5.5,34.4,5.1,35
	c-0.2,0.3-0.3,0.5-0.4,0.7c-0.1,0.2-0.2,0.4-0.2,0.6c0,0.2,0,0.3,0.1,0.5C4.8,37,5,37.2,5.2,37.3c0.2,0.1,0.5,0.1,0.8,0.1
	c0.3,0,0.6-0.1,0.9-0.3c0.3-0.2,0.6-0.5,0.9-0.8c9.4-10.5,16.7-17.8,21.8-21.9c3.4-2.8,6.2-4.8,8.4-6.2C39,7.6,40,7.1,40.8,6.8
	c0.8-0.3,1.4-0.5,1.9-0.5c0.3,0,0.5,0.1,0.6,0.2c0.1,0.1,0.2,0.2,0.2,0.6c0,0.4-0.2,1.1-0.7,2c-1.4,2.8-4.9,7.5-10.5,14.1L11.3,46.6
	c-3.7,4.2-6.6,7.5-8.4,9.8c-0.9,1.2-1.6,2.1-2.1,2.8c-0.2,0.4-0.4,0.7-0.6,0.9C0.1,60.5,0,60.7,0,60.9c0,0.4,0.2,0.7,0.4,1
	c0.2,0.3,0.6,0.5,1,0.8l0,0c0.8,0.5,1.4,0.8,2,0.8c0.1,0,0.2,0,0.3-0.1c0.1-0.1,0.2-0.1,0.3-0.2c0.4-0.3,1-0.9,1.9-1.8
	c0.9-0.9,2.1-2.2,3.5-3.7l6.3-6.8l18.1-17.9c7-6.7,13.4-12.2,19.2-16.6c3.2-2.4,5.7-4.2,7.7-5.3c1-0.6,1.8-1,2.4-1.3
	c0.7-0.3,1.2-0.4,1.4-0.4c0.2,0,0.3,0.1,0.4,0.1c0,0,0.1,0.1,0.1,0.4c0,0.2-0.1,0.6-0.3,1c-0.7,1.6-2.6,4.6-5.7,8.7
	c-3.1,4.1-7.4,9.5-13,16C39.9,42.9,35.2,48.7,32,52.7c-1.6,2-2.8,3.6-3.6,4.8c-0.4,0.6-0.7,1.1-0.9,1.4c-0.1,0.2-0.2,0.4-0.2,0.5
	c-0.1,0.2-0.1,0.3-0.1,0.5c0,0.3,0.1,0.6,0.3,0.9c0.2,0.3,0.4,0.6,0.8,0.9c0.3,0.3,0.6,0.5,1,0.7c0.3,0.2,0.6,0.3,0.9,0.3
	c0.1,0,0.1,0,0.2,0c0.1,0,0.1-0.1,0.1-0.1c0.1-0.1,0.3-0.3,0.6-0.5c0.9-0.8,2.6-2.7,5.2-5.6c2.6-2.9,6.2-6.8,10.6-11.8
	C52.6,38.1,57.4,33,61,29.5c3.7-3.7,9.4-8.8,17-15.1c4.8-4,8.6-6.9,11.5-8.9c1.4-1,2.6-1.7,3.6-2.2c1-0.5,1.7-0.7,2.1-0.7
	c0.2,0,0.3,0,0.3,0.1c0,0,0.1,0.1,0.1,0.3c0,0.3-0.1,0.7-0.3,1.2c-0.6,1.4-2.3,3.6-5.1,6.3l0,0C79.3,21.3,71.9,29,68,33.3
	c-5.6,6.2-9.8,11.4-12.6,15.7c-1.4,2.1-2.5,4-3.2,5.7c-0.7,1.6-1.1,3.1-1.1,4.3c0,0.6,0.1,1.2,0.3,1.7c0.3,0.8,0.8,1.4,1.5,1.8
	c0.7,0.4,1.5,0.6,2.6,0.6c0.9,0,1.7-0.1,2.2-0.3c0.3-0.1,0.5-0.3,0.7-0.5c0.2-0.2,0.3-0.5,0.3-0.8c0-0.1,0-0.2-0.1-0.3
	c-0.1-0.2-0.2-0.2-0.3-0.3c-0.2-0.1-0.4-0.2-0.7-0.2c-0.3,0-0.6-0.1-1-0.1c-0.5,0-0.9-0.2-1.1-0.3c-0.2-0.1-0.3-0.3-0.3-0.6
	c0-0.2,0.1-0.5,0.2-1C56,57,57.8,54.3,60.7,50.7z"/>
</svg>
