<?xml version="1.0" encoding="utf-8"?>
<!-- Generator: Adobe Illustrator 18.1.1, SVG Export Plug-In . SVG Version: 6.00 Build 0)  -->
<!DOCTYPE svg PUBLIC "-//W3C//DTD SVG 1.1//EN" "http://www.w3.org/Graphics/SVG/1.1/DTD/svg11.dtd">
<svg version="1.1" id="Layer_1" xmlns="http://www.w3.org/2000/svg" xmlns:xlink="http://www.w3.org/1999/xlink" x="0px" y="0px"
	 viewBox="0 230 600.1 195.8" enable-background="new 0 230 600.1 195.8" xml:space="preserve">
<line display="none" fill="none" stroke="#0066CC" stroke-width="4" stroke-miterlimit="10" x1="447.4" y1="165" x2="533.8" y2="165"/>
<path fill="#0066CC" d="M215.6,324L215.6,324L215.6,324L215.6,324z"/>
<path fill="#0066CC" d="M130.6,340.6c6.3-7.9,15-18.1,26.2-30.5c15.4-16.1,27.3-28.8,35.7-37.8c4.2-4.5,7.5-8.2,10-11s4-4.7,4.8-5.7
	l0,0v0c3.7-5.7,5.6-10.9,5.6-15.7c0-1.3-0.2-2.5-0.5-3.5c-0.5-1.6-1.6-2.8-3-3.6c-1.4-0.8-3.1-1.2-5.2-1.2c-3.4,0-7.6,1.5-12.8,4.3
	c-14,7.7-35.1,25.6-63.5,53.7c5.1-6.9,9.2-13,12.3-18.2c2.3-3.9,4-7.3,5.2-10.3s1.8-5.5,1.8-7.6c0-2.6-0.6-4.7-2-6.1
	c-0.7-0.7-1.6-1.3-2.6-1.6c-1-0.3-2.1-0.5-3.4-0.5c-2.8,0-6.3,1.3-10.7,3.6c-11.8,6.3-29.9,20.9-54.7,43.9
	c7.6-9.7,13.6-18,17.9-24.9c2.9-4.6,5.1-8.7,6.6-12.1c1.5-3.5,2.2-6.3,2.2-8.7c0-2.7-0.6-4.9-2-6.5c-0.7-0.8-1.6-1.3-2.6-1.7
	c-1-0.4-2.2-0.5-3.4-0.5c-3.8,0-8.5,1.7-14.3,5c-5.8,3.3-12.7,8.2-20.6,14.8C45.2,268.4,35,278,27,287.2l0,0
	c-5.6,6.5-9.9,11.5-12.7,15.2c-1.4,1.8-2.5,3.3-3.2,4.5c-0.4,0.6-0.6,1.1-0.9,1.5c-0.2,0.4-0.3,0.8-0.3,1.3c0,0.4,0.1,0.7,0.2,1.1
	c0.2,0.5,0.6,0.9,1.1,1.2c0.5,0.2,1.1,0.3,1.7,0.3c0.7,0,1.3-0.3,1.9-0.7c0.6-0.4,1.2-1,1.9-1.7c20.3-22.5,35.9-38.2,46.8-47.1
	c7.3-5.9,13.3-10.3,18.1-13.3c2.4-1.5,4.4-2.6,6.2-3.3c1.7-0.7,3.1-1,4.1-1c0.7,0,1,0.2,1.2,0.4c0.2,0.2,0.4,0.5,0.4,1.2
	c0,0.9-0.4,2.4-1.4,4.3c-2.9,5.9-10.5,16.1-22.5,30.3l-45.1,50.6c-8.1,9-14.1,16.1-18.2,21.1c-2,2.5-3.5,4.6-4.6,6.1
	c-0.5,0.8-0.9,1.4-1.2,2c-0.3,0.6-0.5,1-0.5,1.6c0,0.8,0.3,1.5,0.9,2.1c0.5,0.6,1.2,1.2,2.1,1.7l0,0c1.6,1.1,3,1.7,4.4,1.7
	c0.3,0,0.4-0.1,0.6-0.1c0.2-0.1,0.4-0.3,0.7-0.5c0.8-0.7,2.2-2,4.1-4c1.9-2,4.5-4.7,7.6-8L34,340.8l39-38.5
	c15.1-14.3,28.8-26.2,41.4-35.7c6.8-5.1,12.3-8.9,16.5-11.5c2.1-1.3,3.9-2.2,5.3-2.8c1.4-0.6,2.5-0.9,3.1-0.9c0.5,0,0.7,0.1,0.8,0.2
	c0.1,0.1,0.2,0.3,0.2,0.8c0,0.4-0.2,1.2-0.6,2.2c-1.4,3.5-5.5,9.9-12.2,18.7c-6.7,8.9-16,20.4-27.9,34.4
	c-13.6,16.1-23.9,28.5-30.7,37.2c-3.4,4.3-6,7.8-7.7,10.3c-0.9,1.3-1.5,2.3-2,3.1c-0.2,0.4-0.4,0.8-0.5,1.1c-0.1,0.3-0.2,0.6-0.2,1
	c0,0.7,0.2,1.4,0.6,2c0.4,0.7,1,1.3,1.7,1.9c0.7,0.6,1.4,1.1,2.1,1.5c0.7,0.3,1.3,0.6,2,0.6c0.2,0,0.3,0,0.4-0.1
	c0.1-0.1,0.2-0.1,0.3-0.2c0.3-0.2,0.7-0.5,1.2-1.1c1.9-1.8,5.6-5.8,11.2-12c5.7-6.2,13.3-14.7,22.7-25.3
	c12.6-14.2,22.8-25.1,30.5-32.9c8-8,20.3-18.9,36.7-32.5c10.3-8.5,18.5-14.9,24.7-19.1c3.1-2.1,5.7-3.7,7.7-4.7
	c2.1-1,3.6-1.5,4.4-1.5c0.5,0,0.6,0.1,0.7,0.2c0.1,0.1,0.2,0.3,0.2,0.7c0,0.6-0.2,1.5-0.7,2.5c-1.4,3.1-5,7.7-10.9,13.6l0,0
	c-23.4,23.5-39.4,39.9-47.8,49.3c-12,13.3-21,24.6-27,33.7c-3,4.6-5.3,8.6-6.8,12.2c-1.5,3.5-2.3,6.6-2.3,9.2c0,1.4,0.2,2.6,0.6,3.7
	c0.6,1.6,1.7,2.9,3.1,3.8s3.3,1.2,5.5,1.2c2,0,3.6-0.2,4.8-0.7c0.6-0.3,1.1-0.6,1.5-1.1c0.4-0.5,0.5-1.1,0.5-1.7
	c0-0.2-0.1-0.5-0.2-0.7c-0.2-0.3-0.5-0.5-0.7-0.7c-0.4-0.2-0.9-0.3-1.5-0.5c-0.6-0.1-1.3-0.2-2.1-0.3c-1.1-0.1-1.9-0.4-2.3-0.7
	c-0.4-0.3-0.6-0.6-0.6-1.3c0-0.4,0.2-1.1,0.5-2.1C120.5,354.2,124.3,348.5,130.6,340.6z"/>
<polygon fill="#0066CC" points="27,287.2 27,287.2 27,287.2 "/>
<path fill="#0066CC" d="M528.4,354.1L528.4,354.1C528.4,354.1,528.4,354.1,528.4,354.1L528.4,354.1z"/>
<path fill="#0066CC" d="M233.7,313.6c-0.3-0.1-0.6-0.2-0.9-0.3c-0.1-0.6-0.2-1.1-0.4-1.6c-0.5-1.1-1.4-1.9-2.5-2.5
	c-1.1-0.5-2.5-0.7-4.2-0.7c-4.2,0-9.1,1.6-14.8,4.6c-5.7,3-12.2,7.6-19.6,13.6L164.6,348c-10.1,7.7-18.2,12.1-23.9,13.2h0h0
	c-0.9,0.2-1.6,0.5-2.2,1.1s-0.9,1.3-0.8,2.1c0,0.5,0.1,1.1,0.5,1.5c0.2,0.2,0.5,0.4,0.7,0.5c0.3,0.1,0.5,0.1,0.8,0.1
	c2.9,0,6.4-1,10.4-2.9s8.7-4.7,13.9-8.4l0,0l17.3-13.6c-1.7,4.1-2.5,7.6-2.5,10.5l0,0c0,2.4,0.3,4.5,1,6.3c1,2.7,2.8,4.9,5.4,6.3
	c2.5,1.4,5.8,2,9.7,2c2.3,0,4.1-0.2,5.3-0.5c0.6-0.2,1.2-0.4,1.6-0.8c0.4-0.4,0.7-0.9,0.7-1.5c0-0.4-0.2-0.9-0.5-1.2
	c-0.4-0.5-1-0.7-1.6-0.9c-0.7-0.2-1.5-0.4-2.5-0.5h0l0,0c-1.7-0.2-3.1-0.3-4.2-0.6c-1.1-0.2-2-0.5-2.5-0.7c-1.1-0.5-1.9-1.2-2.4-2
	s-0.8-1.9-0.8-3.2c0-0.9,0.3-2.2,1-3.7c2-4.5,7.2-11.1,15.6-19.7c5.6-5.7,10.3-10,14.1-12.8c1.9-1.4,3.6-2.5,5-3.1
	c1.4-0.7,2.6-1,3.4-1c0.3,0,0.4,0.1,0.4,0.1s0.1,0.1,0.1,0.3l-0.1,0.5c-3.6,1.6-7.5,4.5-11.8,8.7c-2.6,2.4-4.5,4.7-5.8,6.7
	s-2,3.9-2,5.7c0,0.6,0.1,1.2,0.3,1.7c0.3,0.8,0.8,1.4,1.6,1.8c0.7,0.4,1.6,0.6,2.6,0.6c2.2,0,4.4-0.8,6.5-2.2
	c2.2-1.4,4.3-3.5,6.5-6.3c3.4-4.4,5.9-8.8,7.2-13.3c0.6-0.1,1.2-0.3,1.7-0.6c0.3-0.2,0.6-0.5,0.7-0.9c0.2-0.3,0.2-0.7,0.2-1.1
	c0-0.4-0.1-0.8-0.2-1.2C234.6,314.4,234.2,313.9,233.7,313.6z M220.4,328.3c-1.5,1.9-2.9,3.4-4,4.3c-0.9,0.8-1.7,1.1-2.2,1.2
	l-0.1-0.1c0-0.1,0.1-0.3,0.2-0.5c0.6-1.3,2.3-3.3,5-6l0,0l0,0c1.9-1.9,3.6-3.4,5-4.5C223.3,324.4,222,326.2,220.4,328.3L220.4,328.3
	z"/>
<path fill="#0066CC" d="M323.8,345.9c2.4-2.7,3.6-5.4,3.6-8c0-1-0.1-1.8-0.5-2.5c-0.2-0.3-0.5-0.7-0.8-0.9c-0.3-0.2-0.7-0.3-1.1-0.3
	h-0.3l-9.4,7c-7.4,5.3-14.6,9.5-21.5,12.7l0,0c-9.9,4.5-19,6.8-27.3,6.8c-5.7,0-9.9-1.2-12.5-3.5c-1.3-1.1-2.3-2.5-3-4.2
	c-0.7-1.7-1-3.7-1-6.1c0-5.9,1.9-12.6,5.8-20.2c3.9-7.6,9.7-15.9,17.4-25.1c16.9-16.7,35.3-31.7,55.2-44.7
	c20.5-13.5,36.5-20.1,47.9-20.1c2.6,0,4.4,0.6,5.5,1.6c0.6,0.5,1,1.1,1.3,1.9c0.3,0.8,0.5,1.8,0.5,2.9c0,1.4-0.3,2.8-0.9,4.3
	c-8.9,3.7-19.3,11-31.3,21.7l0,0c-6.8,6.2-11.9,11.7-15.4,16.7c-3.4,5-5.2,9.4-5.2,13.4c0,1.3,0.2,2.5,0.5,3.5
	c0.5,1.5,1.5,2.8,2.9,3.6s3.1,1.1,5.1,1.1c4.6,0,9.5-1.9,14.9-5.6c5.3-3.7,11.1-9.2,17.2-16.5c11.2-13.3,18-24.9,20.4-34.7
	c2-0.7,3.5-1.3,4.7-1.9c0.6-0.3,1.1-0.7,1.5-1.1c0.4-0.4,0.7-0.9,0.7-1.5c0-0.7-0.2-1.5-0.7-2c-0.3-0.3-0.6-0.5-0.9-0.6
	s-0.7-0.2-1.1-0.2c-1,0-2.2,0.3-3.7,0.8c-0.4-4.5-2-8-4.7-10.4c-2.9-2.6-7.2-3.9-12.5-3.9c-11.6,0-28.1,5.5-49.7,16.5
	c-19.2,9.7-37.1,22.8-53.7,39.2c-10.3,10.2-18,19.9-23.2,29.3c-5.2,9.4-7.8,18.4-7.8,27.1c0,8.2,3,15.1,9.1,20.3
	c5.7,5,12.8,7.5,21.1,7.5c7.2,0,14.6-1.6,22.2-4.7c7.5-3.1,14.3-6.7,20.4-10.7l0,0C317.9,351.5,321.4,348.7,323.8,345.9z
	 M360.7,279.9c-5.5,6.4-10.2,11.2-14,14.4c-1.9,1.6-3.6,2.8-5.1,3.5c-1.5,0.8-2.7,1.1-3.5,1.1c-0.2,0-0.3,0-0.4-0.1
	c-0.1-0.1-0.1-0.1-0.2-0.2c-0.1-0.2-0.1-0.5-0.1-0.9c0-0.5,0.2-1.4,0.8-2.5c1.7-3.5,6.1-9.2,13.2-17c8.6-9.5,17.8-16.9,27.5-22.3
	C375,262.2,369,270.2,360.7,279.9L360.7,279.9z"/>
<path fill="#0066CC" d="M599.5,314.8c-0.5-1.4-1.6-2.5-3-3.2c-1.4-0.7-3.1-1-5.1-1c-3.7,0-7.6,1.1-11.9,3.2
	c-4.3,2.1-8.9,5.3-13.8,9.6l0,0c-9.1,7.7-15.3,15.1-18.4,22.3c-5,1.3-11.3,4.1-18.9,8.4h0c-7.1,4.1-12.5,6.5-16.2,7.1l0,0
	c-0.3,0.1-0.6,0.1-0.9,0.2c0,0-0.1,0-0.1,0h0l-3.1,0.1c-0.4-0.1-0.7-0.2-0.8-0.3c-0.1-0.1-0.2-0.3-0.2-0.7c0-0.1,0.1-0.2,0.2-0.4
	c0.5-0.9,2-2.8,4.2-5.5c2.3-2.6,5.4-6.1,9.4-10.3c4.7-5,8.3-9.3,10.7-13.1s3.7-6.8,3.7-9.3c0-1.5-0.2-2.9-0.8-4.1
	c-0.8-1.8-2.2-3.2-4-4.1c-1.5-0.7-3.4-1.1-5.5-1.3c0.5-0.8,0.8-1.6,1.1-2.2c0.4-1,0.7-1.9,0.7-2.7c0-0.4-0.1-0.8-0.2-1.2
	c-0.2-0.6-0.6-1.1-1.1-1.3s-1.1-0.4-1.8-0.4c-0.6,0-1.1,0.2-1.7,0.4c-1.8,0.8-4.2,2.6-7.3,5.4c-2.1,1.9-3.7,3.5-4.7,4.9
	c-1.1,1.4-1.7,2.7-1.7,3.9c0,0.3,0,0.7,0.1,1.4c0.1,0.6,0.2,1.3,0.3,2.1c-4.9,5.4-11.9,11.8-20.9,19.3l0,0
	c-10.3,8.6-18,14.1-23.1,16.3h0l0,0c-3.4,1.6-6.2,2.5-8.1,2.9h0c-0.5,0.1-0.9,0.2-1.3,0.4c-0.5-0.1-1-0.1-1.6-0.2
	c-1,0-1.6-0.2-2-0.5c-0.2-0.1-0.3-0.2-0.3-0.4c-0.1-0.1-0.1-0.3-0.1-0.6c0-0.6,0.3-1.5,0.8-2.8c1.8-3.8,6.4-10,13.8-18.6
	c5-5.7,8.7-10.2,11.2-13.5c1.3-1.6,2.2-3,2.9-4c0.3-0.5,0.6-1,0.8-1.4c0.2-0.4,0.3-0.7,0.3-1.2c0-1.3-0.6-2.4-1.5-3.5
	c-1-1-2.1-1.7-3.3-1.7c-0.5,0-0.9,0.2-1.4,0.5c-0.8,0.5-1.8,1.2-3.1,2.4c-3.8,3.4-10.1,9.9-18.8,19.5c-6.6,7.3-12.1,12.8-16.3,16.5
	c-2.1,1.8-3.9,3.2-5.4,4c-1.5,0.9-2.6,1.3-3.3,1.3c-0.4,0-0.6-0.1-0.7-0.2c0,0-0.1-0.1-0.1-0.1c0-0.1-0.1-0.2-0.1-0.4
	c0-1.8,1-4.5,3.2-8c2.2-3.5,5.5-7.7,10-12.7c4.5-5,7.9-9.1,10.2-12.2c1.1-1.6,2-2.9,2.6-4.1c0.6-1.2,0.9-2.1,0.9-3
	c0-0.7-0.1-1.4-0.5-2c-0.5-0.9-1.3-1.6-2.3-2c-1-0.4-2.3-0.6-3.7-0.6c-1.6,0-3.2,0.6-4.9,1.7l0,0l0,0c-4,3.2-6.9,5.7-8.7,7.6
	c-10.7,9.2-18.8,15.9-24.3,20.2l0,0c-6,4.7-11,8.5-14.9,11.2c-3.9,2.8-6.8,4.6-8.6,5.4l0,0c-3.2,1.5-5.9,2.4-8.2,2.8h0
	c-0.5,0.1-1,0.3-1.4,0.4c-1.6,0-2.7-0.2-3.3-0.5c-0.3-0.2-0.5-0.3-0.7-0.5c-0.1-0.1-0.1-0.3-0.2-0.5c0-1.5,0.6-3.6,1.8-6.5
	c1.2-2.8,3.1-6.2,5.6-10.3l0,0c4.8-7.9,8.9-13,12-15.3l0,0c14.1-10.5,27.2-21.3,39.2-32.5l0,0c9.5-8.9,16.7-16.6,21.5-23.2
	c4.8-6.5,7.3-11.9,7.3-16.3c0-1.7-0.4-3.1-1.4-4.2c-0.5-0.5-1.1-0.9-1.7-1.1s-1.4-0.3-2.2-0.3c-1.8,0-3.9,0.6-6.3,1.8
	c-7.3,3.6-17.8,12.4-31.8,26.4c-16.7,16.8-29.9,32.3-39.5,46.7c-8.2,6.5-16,12.4-23.4,17.8l0,0l0,0c-10.2,7.6-17.4,12.5-21.5,14.7
	l0,0l0,0c-3.5,1.9-6.5,3-9,3.4h0c-1.3,0.2-2.3,0.5-3,1c-0.4,0.3-0.7,0.6-0.9,1c-0.2,0.4-0.4,0.8-0.3,1.3c0,0.3,0,0.5,0.1,0.8
	c0.1,0.4,0.4,0.8,0.8,1c0.4,0.2,0.8,0.3,1.2,0.3c3.2,0,7.1-1.2,11.9-3.4c4.8-2.2,10.4-5.5,16.8-10l0,0l20.8-15.7
	c-4,8.7-6,15.4-6,20.4c0,2.8,0.7,5.1,2.3,6.7c0.8,0.8,1.7,1.4,2.9,1.7c1.1,0.4,2.4,0.5,3.8,0.6c1.4,0,2.5-0.1,3.4-0.3c0,0,0,0,0.1,0
	c3.4,0,7.8-1.6,13.3-4.5c5.5-3,12.2-7.4,20-13.4l0,0l19.6-16.2l-5.8,6.8l0,0c-4.7,6.6-7.1,12.6-7.1,18.1c0,2.3,0.5,4.3,1.7,5.6
	c0.6,0.7,1.4,1.2,2.2,1.5s1.9,0.5,2.9,0.5c2.9,0,6.4-1.5,10.6-4.3c3.3-2.2,7-5.2,11.1-9c-1.3,3.1-2,5.8-2,8c0,1.1,0.2,2.1,0.6,3.1
	c0.6,1.4,1.7,2.4,3.1,3.1c1.4,0.7,3.2,0.9,5.3,0.9c1.1,0,2-0.1,2.7-0.2c0.2,0,0.3,0,0.5,0c2.8,0,6.1-0.9,10-2.7
	c11.6-5.4,28.5-18.7,50.9-39.9c0,0,0.2-0.1,0.4-0.2c0.7-0.3,2.1-0.8,4-1.4c1.3-0.4,2.4-0.6,3.3-0.8c0.9-0.2,1.5-0.3,1.9-0.3
	c0.4,0,0.6,0.1,0.6,0.1c0,0,0,0,0.1,0.1c0,0,0,0.1,0,0.2c-0.1,0.1-0.3,0.4-0.5,0.6c-1,1.2-3.1,3.4-6.3,6.6
	c-5.9,5.8-10.3,10.7-13.3,14.6l0,0c-4.8,6.3-7.3,11.6-7.3,16.1c0,1.1,0.2,2.2,0.5,3.1c0.5,1.4,1.5,2.5,2.8,3.2c1.3,0.7,2.9,1,4.8,1
	c1.5,0,2.7-0.1,3.7-0.3c0.1,0,0.2,0,0.3,0c2.2,0,4.8-0.6,7.8-1.7c3-1.1,6.5-2.9,10.4-5.1l0,0c4.4-2.6,8.1-4.6,11.1-6.1
	c2.2-1.1,3.9-1.9,5.3-2.3c-0.3,1.5-0.4,2.9-0.4,4.2l0,0c0,2,0.3,3.6,0.9,5.1c0.9,2.2,2.4,4,4.6,5.1c2.1,1.1,4.9,1.6,8.1,1.6
	c4,0,7-0.2,9.1-0.6c1.1-0.2,1.9-0.5,2.5-0.9c0.3-0.2,0.6-0.4,0.8-0.7c0.2-0.3,0.3-0.7,0.3-1.1c0-0.4-0.1-0.9-0.4-1.2
	c-0.4-0.5-0.9-0.8-1.6-1c-0.7-0.2-1.5-0.3-2.3-0.3l0,0c-1.6-0.1-2.9-0.2-4-0.3c-1-0.1-1.8-0.3-2.3-0.5c-1-0.4-1.7-1.1-2.2-2
	c-0.5-0.9-0.8-2.1-0.8-3.7c0-2,0.4-3.9,1.1-5.7c8.3-2.8,16.3-6.7,24.2-11.7l0,0c5.5-3.4,9.6-6.7,12.4-9.9c2.8-3.2,4.3-6.4,4.3-9.5
	C600,316.8,599.8,315.7,599.5,314.8z M572.9,327.2c3.6-3.8,6.7-6.7,9.5-8.5c2.7-1.9,5.1-2.7,6.9-2.7c0.3,0,0.5,0,0.6,0.1
	c0.2,0.1,0.3,0.2,0.4,0.3c0.1,0.2,0.2,0.5,0.2,1c0,0.8-0.2,1.7-0.7,2.7c-1.5,3.1-5.5,7.2-12,12l0,0c-5.6,4.3-11,7.7-16.2,10.5
	C563.7,338.2,567.5,333,572.9,327.2L572.9,327.2L572.9,327.2z M424.3,284.4c8.7-9.8,15.5-17.1,20.4-22c2.5-2.4,4.5-4.3,6-5.4
	c0.7-0.6,1.4-1,1.9-1.3c0.5-0.3,0.8-0.4,0.8-0.3c0.5,0,0.6,0.1,0.7,0.2c0,0,0.1,0.1,0.1,0.1c0,0.1,0.1,0.2,0.1,0.4
	c0,2.2-1.2,5.4-3.8,9.4c-3.9,6-10.7,13.7-20.5,23.1c-8.7,8.4-19.8,18.1-33.2,29.1C402.2,310,411.4,299,424.3,284.4L424.3,284.4z"/>
<path fill="#0066CC" d="M249.7,362.4L249.7,362.4L249.7,362.4L249.7,362.4z"/>
<g>
	<path fill="#0066CC" d="M24.9,389.1L38,417.2h-3l-4.4-9.2H18.4l-4.4,9.2h-3.1l13.3-28.1H24.9z M24.5,395.1l-4.8,10.2h9.6
		L24.5,395.1z"/>
	<path fill="#0066CC" d="M41.9,389.1h2.8v28.1h-2.8V389.1z"/>
	<path fill="#0066CC" d="M51.3,389.1h5.6c3.1,0,5.2,0.1,6.3,0.4c1.7,0.4,3,1.2,4.1,2.5c1,1.3,1.6,2.8,1.6,4.6c0,1.5-0.4,2.9-1.1,4
		c-0.7,1.2-1.7,2-3.1,2.6c-1.3,0.6-3.2,0.9-5.5,0.9l10.1,13h-3.5l-10.1-13h-1.6v13h-2.8V389.1z M54.1,391.9v9.5l4.8,0
		c1.9,0,3.3-0.2,4.2-0.5c0.9-0.4,1.6-0.9,2.1-1.7c0.5-0.8,0.8-1.7,0.8-2.6c0-0.9-0.3-1.8-0.8-2.6c-0.5-0.8-1.2-1.3-2-1.7
		s-2.2-0.5-4.1-0.5H54.1z"/>
	<path fill="#0066CC" d="M111.8,394.3l-2.2,1.7c-1.2-1.6-2.7-2.8-4.4-3.6c-1.7-0.8-3.6-1.2-5.6-1.2c-2.2,0-4.3,0.5-6.2,1.6
		c-1.9,1.1-3.4,2.5-4.4,4.3s-1.6,3.9-1.6,6.1c0,3.4,1.2,6.3,3.5,8.6c2.3,2.3,5.3,3.4,8.9,3.4c3.9,0,7.2-1.5,9.9-4.6l2.2,1.7
		c-1.4,1.8-3.1,3.2-5.2,4.1c-2.1,1-4.4,1.5-7,1.5c-4.9,0-8.8-1.6-11.6-4.9c-2.4-2.8-3.6-6.1-3.6-10c0-4.1,1.4-7.6,4.3-10.4
		c2.9-2.8,6.5-4.2,10.8-4.2c2.6,0,5,0.5,7.1,1.6C108.7,391,110.5,392.5,111.8,394.3z"/>
	<path fill="#0066CC" d="M130.8,388.4c4.3,0,7.8,1.4,10.7,4.3c2.9,2.8,4.3,6.3,4.3,10.5c0,4.1-1.4,7.6-4.3,10.5
		c-2.9,2.9-6.3,4.3-10.5,4.3c-4.2,0-7.7-1.4-10.5-4.3c-2.9-2.8-4.3-6.3-4.3-10.3c0-2.7,0.7-5.2,2-7.5c1.3-2.3,3.1-4.1,5.3-5.4
		C125.8,389.1,128.2,388.4,130.8,388.4z M130.9,391.2c-2.1,0-4,0.5-5.9,1.6c-1.9,1.1-3.3,2.5-4.4,4.4c-1,1.8-1.6,3.9-1.6,6.1
		c0,3.3,1.2,6.2,3.5,8.4c2.3,2.3,5.1,3.4,8.4,3.4c2.2,0,4.2-0.5,6-1.6c1.9-1.1,3.3-2.5,4.3-4.3s1.6-3.9,1.6-6.1c0-2.2-0.5-4.2-1.6-6
		s-2.5-3.2-4.4-4.3C135.1,391.7,133.1,391.2,130.9,391.2z"/>
	<path fill="#0066CC" d="M151.4,417.2v-28.1h0.6l18.7,21.5v-21.5h2.8v28.1h-0.6L154.3,396v21.3H151.4z"/>
	<path fill="#0066CC" d="M180.3,417.2v-28.1h5.8c4.2,0,7.2,0.3,9.1,1c2.7,1,4.8,2.6,6.4,5c1.5,2.4,2.3,5.2,2.3,8.4
		c0,2.8-0.6,5.3-1.8,7.4c-1.2,2.1-2.8,3.7-4.7,4.7s-4.7,1.5-8.2,1.5H180.3z M183,414.6h3.2c3.9,0,6.6-0.2,8.1-0.7
		c2.1-0.7,3.8-1.9,5-3.7c1.2-1.8,1.8-4,1.8-6.5c0-2.7-0.7-5-2-6.9c-1.3-1.9-3.1-3.2-5.5-3.9c-1.8-0.5-4.6-0.8-8.7-0.8h-2V414.6z"/>
	<path fill="#0066CC" d="M209,389.1h2.8v28.1H209V389.1z"/>
	<path fill="#0066CC" d="M215.4,391.9v-2.7h15.4v2.7h-6.3v25.3h-2.9v-25.3H215.4z"/>
	<path fill="#0066CC" d="M234.5,389.1h2.8v28.1h-2.8V389.1z"/>
	<path fill="#0066CC" d="M257.1,388.4c4.3,0,7.8,1.4,10.7,4.3c2.9,2.8,4.3,6.3,4.3,10.5c0,4.1-1.4,7.6-4.3,10.5
		c-2.9,2.9-6.3,4.3-10.5,4.3c-4.2,0-7.7-1.4-10.5-4.3c-2.9-2.8-4.3-6.3-4.3-10.3c0-2.7,0.7-5.2,2-7.5c1.3-2.3,3.1-4.1,5.3-5.4
		C252,389.1,254.4,388.4,257.1,388.4z M257.2,391.2c-2.1,0-4,0.5-5.9,1.6c-1.9,1.1-3.3,2.5-4.4,4.4c-1,1.8-1.6,3.9-1.6,6.1
		c0,3.3,1.2,6.2,3.5,8.4c2.3,2.3,5.1,3.4,8.4,3.4c2.2,0,4.2-0.5,6-1.6c1.9-1.1,3.3-2.5,4.3-4.3s1.6-3.9,1.6-6.1c0-2.2-0.5-4.2-1.6-6
		s-2.5-3.2-4.4-4.3C261.3,391.7,259.3,391.2,257.2,391.2z"/>
	<path fill="#0066CC" d="M277.7,417.2v-28.1h0.6l18.7,21.5v-21.5h2.8v28.1h-0.6L280.6,396v21.3H277.7z"/>
	<path fill="#0066CC" d="M306.2,389.1h2.8v28.1h-2.8V389.1z"/>
	<path fill="#0066CC" d="M315.4,417.2v-28.1h0.6l18.7,21.5v-21.5h2.8v28.1h-0.6L318.3,396v21.3H315.4z"/>
	<path fill="#0066CC" d="M371.4,393.9l-2.2,2.1c-1.6-1.5-3.3-2.7-5.1-3.5s-3.7-1.2-5.4-1.2c-2.2,0-4.3,0.5-6.3,1.6s-3.5,2.5-4.6,4.4
		c-1.1,1.9-1.6,3.8-1.6,5.9c0,2.1,0.6,4.1,1.7,6s2.7,3.4,4.7,4.5c2,1.1,4.2,1.6,6.6,1.6c2.9,0,5.3-0.8,7.3-2.4s3.2-3.7,3.5-6.3h-8.9
		v-2.7H373c0,4.3-1.3,7.8-3.9,10.3s-6,3.8-10.2,3.8c-5.2,0-9.3-1.8-12.3-5.3c-2.3-2.7-3.5-5.9-3.5-9.4c0-2.7,0.7-5.1,2-7.4
		c1.3-2.3,3.2-4.1,5.5-5.4c2.3-1.3,5-1.9,7.9-1.9c2.4,0,4.6,0.4,6.7,1.3C367.3,390.6,369.4,392,371.4,393.9z"/>
	<path fill="#0066CC" d="M410.4,406.8l1.9,2c-1.2,1.1-2.4,2-3.5,2.8c0.8,0.7,1.8,1.7,3,2.9c1,1,1.8,1.9,2.5,2.7h-3.9l-3.7-3.8
		c-2.3,1.9-4.2,3.1-5.7,3.7s-3,0.9-4.6,0.9c-2.2,0-3.9-0.6-5.2-1.9c-1.3-1.2-2-2.8-2-4.6c0-1.4,0.4-2.8,1.3-4.2
		c0.9-1.4,2.7-3.2,5.4-5.3c-1.5-1.9-2.5-3.2-3-4.1c-0.4-0.9-0.7-1.7-0.7-2.5c0-1.4,0.5-2.6,1.6-3.5c1.2-1.1,2.8-1.6,4.7-1.6
		c1.2,0,2.2,0.2,3.2,0.7s1.7,1.1,2.2,1.9c0.5,0.8,0.8,1.6,0.8,2.5c0,0.9-0.3,1.9-1,3c-0.7,1.1-2,2.4-3.9,4.1l4.3,4.5l2.8,2.8
		C408.4,408.6,409.6,407.6,410.4,406.8z M397.8,404c-2.4,1.8-3.9,3.2-4.7,4.3s-1.1,2-1.1,2.9c0,1.1,0.5,2,1.4,2.8
		c0.9,0.8,2,1.2,3.3,1.2c1,0,2-0.2,2.9-0.6c1.5-0.6,3.2-1.8,5.2-3.3l-4.4-4.6C399.6,406,398.7,405.1,397.8,404z M398.1,400.3
		c1.4-1.1,2.4-2.1,3.1-3.1c0.5-0.7,0.7-1.4,0.7-1.9c0-0.6-0.3-1.2-0.9-1.7c-0.6-0.5-1.5-0.7-2.5-0.7c-1,0-1.8,0.2-2.4,0.7
		s-0.9,1.1-0.9,1.7c0,0.5,0.1,1,0.4,1.4C396.1,397.8,397,399,398.1,400.3z"/>
	<path fill="#0066CC" d="M429.5,389.1h2.8v11.8h14.3v-11.8h2.8v28.1h-2.8v-13.5h-14.3v13.5h-2.8V389.1z"/>
	<path fill="#0066CC" d="M456.3,389.1h16.1v2.7h-13.3v8.8h13.2v2.7h-13.2v11h13.2v2.7h-16V389.1z"/>
	<path fill="#0066CC" d="M488.7,389.1l13.1,28.1h-3l-4.4-9.2h-12.1l-4.4,9.2h-3.1l13.3-28.1H488.7z M488.3,395.1l-4.8,10.2h9.6
		L488.3,395.1z"/>
	<path fill="#0066CC" d="M500.2,391.9v-2.7h15.4v2.7h-6.3v25.3h-2.9v-25.3H500.2z"/>
	<path fill="#0066CC" d="M519.2,389.1h2.8v28.1h-2.8V389.1z"/>
	<path fill="#0066CC" d="M528.4,417.2v-28.1h0.6l18.7,21.5v-21.5h2.8v28.1h-0.6L531.3,396v21.3H528.4z"/>
	<path fill="#0066CC" d="M584.4,393.9l-2.2,2.1c-1.6-1.5-3.3-2.7-5.1-3.5s-3.7-1.2-5.4-1.2c-2.2,0-4.3,0.5-6.3,1.6s-3.5,2.5-4.6,4.4
		c-1.1,1.9-1.6,3.8-1.6,5.9c0,2.1,0.6,4.1,1.7,6s2.7,3.4,4.7,4.5c2,1.1,4.2,1.6,6.6,1.6c2.9,0,5.3-0.8,7.3-2.4s3.2-3.7,3.5-6.3H574
		v-2.7h12.1c0,4.3-1.3,7.8-3.9,10.3s-6,3.8-10.2,3.8c-5.2,0-9.3-1.8-12.3-5.3c-2.3-2.7-3.5-5.9-3.5-9.4c0-2.7,0.7-5.1,2-7.4
		c1.3-2.3,3.2-4.1,5.5-5.4c2.3-1.3,5-1.9,7.9-1.9c2.4,0,4.6,0.4,6.7,1.3C580.4,390.6,582.4,392,584.4,393.9z"/>
</g>
</svg>
