<?xml version="1.0" encoding="utf-8"?>
<!-- Generator: Adobe Illustrator 19.1.0, SVG Export Plug-In . SVG Version: 6.00 Build 0)  -->
<!DOCTYPE svg PUBLIC "-//W3C//DTD SVG 1.1//EN" "http://www.w3.org/Graphics/SVG/1.1/DTD/svg11.dtd">
<svg version="1.1" id="Layer_1" xmlns="http://www.w3.org/2000/svg" xmlns:xlink="http://www.w3.org/1999/xlink" x="0px" y="0px"
	 viewBox="0 0 353 32" style="enable-background:new 0 0 353 32;" xml:space="preserve">
<style type="text/css">
	.st0{fill:#FFFFFF;}
</style>
<g>
	<path class="st0" d="M0,9.6h2v2.7c0.7-1,1.4-1.7,2.2-2.2c1-0.6,2.1-0.9,3.2-0.9c0.8,0,1.5,0.1,2.2,0.4c0.7,0.3,1.2,0.7,1.7,1.2
		c0.4,0.5,0.8,1.2,1.1,2.1c0.7-1.2,1.5-2.2,2.5-2.8s2.1-1,3.2-1c1.1,0,2,0.3,2.9,0.8s1.4,1.3,1.8,2.3c0.4,1,0.6,2.4,0.6,4.4v8.5
		h-2.1v-8.5c0-1.7-0.1-2.8-0.4-3.5c-0.2-0.6-0.6-1.1-1.2-1.5c-0.6-0.4-1.3-0.6-2.1-0.6c-1,0-1.9,0.3-2.7,0.9
		c-0.8,0.6-1.4,1.3-1.8,2.3c-0.4,1-0.6,2.6-0.6,4.8v6.1h-2v-8c0-1.9-0.1-3.2-0.4-3.8c-0.2-0.7-0.6-1.2-1.2-1.6S7.8,11.2,7,11.2
		c-0.9,0-1.8,0.3-2.6,0.8c-0.8,0.6-1.4,1.3-1.8,2.3S2,16.7,2,18.7v6.6H0V9.6z"/>
	<path class="st0" d="M25.9,9.6h2.1l5.4,12l5.2-12h2.1L31.5,31h-2.1l3-6.9L25.9,9.6z"/>
	<path class="st0" d="M44,0.6h4.8v9.3H57V0.6h4.7v24.7H57V14.5h-8.2v10.8H44V0.6z"/>
	<path class="st0" d="M65.5,0.6h4.8l6.2,17.5l6.3-17.5h4.8l-8.9,24.7h-4.5L65.5,0.6z"/>
	<path class="st0" d="M94.6,0.6h4.8l9.5,24.7H104l-1.9-5.1H92l-2,5.1h-4.9L94.6,0.6z M97,7.2l-3.3,8.5h6.6L97,7.2z"/>
	<path class="st0" d="M135.2,5l-3.3,3.1c-2.2-2.4-4.7-3.5-7.5-3.5c-2.4,0-4.3,0.8-6,2.4c-1.6,1.6-2.4,3.6-2.4,6
		c0,1.6,0.4,3.1,1.1,4.4c0.7,1.3,1.7,2.3,3,3c1.3,0.7,2.8,1.1,4.4,1.1c1.4,0,2.6-0.3,3.7-0.8c1.1-0.5,2.4-1.4,3.7-2.8l3.2,3.3
		c-1.8,1.8-3.5,3-5.2,3.7c-1.6,0.7-3.5,1-5.6,1c-3.8,0-7-1.2-9.4-3.6s-3.7-5.5-3.7-9.3c0-2.5,0.6-4.6,1.7-6.6s2.7-3.4,4.8-4.6
		c2.1-1.2,4.3-1.7,6.7-1.7c2,0,4,0.4,5.9,1.3C132.2,2.1,133.8,3.4,135.2,5z"/>
	<path class="st0" d="M139,25.3V4.1h4.4c3.2,0,5.5,0.3,6.9,0.8c2.1,0.7,3.7,2,4.8,3.7s1.7,3.9,1.7,6.3c0,2.1-0.5,4-1.4,5.6
		s-2.1,2.8-3.6,3.6s-3.5,1.1-6.1,1.1H139z M141.1,23.3h2.4c2.9,0,4.9-0.2,6.1-0.5c1.6-0.5,2.8-1.4,3.8-2.8c0.9-1.3,1.4-3,1.4-4.9
		c0-2-0.5-3.8-1.5-5.2c-1-1.4-2.4-2.4-4.1-3c-1.3-0.4-3.5-0.6-6.5-0.6h-1.5V23.3z"/>
	<path class="st0" d="M160.7,4.1h2.1v21.1h-2.1V4.1z"/>
	<path class="st0" d="M165.4,21.4l1.8-1.1c1.3,2.3,2.7,3.5,4.4,3.5c0.7,0,1.4-0.2,2-0.5c0.6-0.3,1.1-0.8,1.4-1.3s0.5-1.1,0.5-1.8
		c0-0.7-0.2-1.4-0.7-2.1c-0.7-0.9-1.9-2.1-3.6-3.4c-1.8-1.3-2.9-2.3-3.3-2.9c-0.7-1-1.1-2.1-1.1-3.2c0-0.9,0.2-1.8,0.7-2.5
		c0.4-0.8,1.1-1.4,1.9-1.8s1.7-0.7,2.6-0.7c1,0,1.9,0.2,2.8,0.7c0.9,0.5,1.8,1.4,2.8,2.7l-1.7,1.3c-0.8-1.1-1.5-1.7-2-2.1
		c-0.6-0.3-1.2-0.5-1.8-0.5c-0.9,0-1.6,0.3-2.1,0.8c-0.5,0.5-0.8,1.2-0.8,1.9c0,0.5,0.1,0.9,0.3,1.3c0.2,0.4,0.5,0.9,1,1.4
		c0.3,0.3,1.2,1,2.7,2.1c1.8,1.4,3.1,2.6,3.8,3.6c0.7,1.1,1,2.1,1,3.2c0,1.5-0.6,2.9-1.7,4c-1.2,1.1-2.6,1.7-4.2,1.7
		c-1.3,0-2.4-0.3-3.5-1S166.3,23,165.4,21.4z"/>
	<path class="st0" d="M202,8.1l-1.7,1.3c-0.9-1.2-2-2.1-3.3-2.7c-1.3-0.6-2.7-0.9-4.2-0.9c-1.7,0-3.2,0.4-4.7,1.2
		c-1.4,0.8-2.6,1.9-3.3,3.3c-0.8,1.4-1.2,2.9-1.2,4.6c0,2.6,0.9,4.7,2.7,6.5c1.8,1.7,4,2.6,6.7,2.6c3,0,5.4-1.2,7.4-3.5l1.7,1.3
		c-1.1,1.3-2.4,2.4-3.9,3.1c-1.6,0.7-3.3,1.1-5.3,1.1c-3.7,0-6.6-1.2-8.8-3.7c-1.8-2.1-2.7-4.6-2.7-7.5c0-3.1,1.1-5.7,3.3-7.8
		c2.2-2.1,4.9-3.2,8.2-3.2c2,0,3.8,0.4,5.3,1.2C199.6,5.6,200.9,6.7,202,8.1z"/>
	<path class="st0" d="M216.3,3.6c3.2,0,5.9,1.1,8,3.2c2.2,2.1,3.2,4.8,3.2,7.9c0,3.1-1.1,5.7-3.2,7.9c-2.2,2.2-4.8,3.2-7.9,3.2
		c-3.1,0-5.8-1.1-7.9-3.2s-3.2-4.7-3.2-7.8c0-2,0.5-3.9,1.5-5.6c1-1.7,2.3-3.1,4-4.1S214.3,3.6,216.3,3.6z M216.4,5.7
		c-1.6,0-3,0.4-4.4,1.2c-1.4,0.8-2.5,1.9-3.3,3.3c-0.8,1.4-1.2,2.9-1.2,4.6c0,2.5,0.9,4.6,2.6,6.4c1.7,1.7,3.8,2.6,6.3,2.6
		c1.6,0,3.2-0.4,4.6-1.2c1.4-0.8,2.5-1.9,3.3-3.3c0.8-1.4,1.2-2.9,1.2-4.6c0-1.7-0.4-3.2-1.2-4.6c-0.8-1.4-1.9-2.4-3.3-3.3
		C219.5,6.1,218,5.7,216.4,5.7z"/>
	<path class="st0" d="M231.9,4.1h2.1v12.8c0,1.5,0,2.5,0.1,2.8c0.1,0.8,0.4,1.5,0.7,2.1c0.4,0.6,1,1,1.8,1.4
		c0.8,0.4,1.6,0.6,2.4,0.6c0.7,0,1.4-0.1,2-0.4c0.6-0.3,1.2-0.7,1.6-1.2c0.4-0.5,0.7-1.2,0.9-1.9c0.1-0.5,0.2-1.6,0.2-3.3V4.1h2.1
		v12.8c0,1.9-0.2,3.4-0.6,4.6c-0.4,1.2-1.1,2.2-2.2,3c-1.1,0.9-2.4,1.3-4,1.3c-1.7,0-3.2-0.4-4.4-1.2s-2-1.9-2.4-3.2
		c-0.3-0.8-0.4-2.3-0.4-4.5V4.1z"/>
	<path class="st0" d="M251.1,25.3V4.1h0.5l14.1,16.2V4.1h2.1v21.1h-0.5l-14-16v16H251.1z"/>
	<path class="st0" d="M270.7,6.2V4.1h11.6v2.1h-4.7v19.1h-2.2V6.2H270.7z"/>
	<path class="st0" d="M285.2,22.1c0.5,0,0.9,0.2,1.3,0.5c0.3,0.3,0.5,0.8,0.5,1.3c0,0.5-0.2,0.9-0.5,1.3c-0.3,0.3-0.8,0.5-1.3,0.5
		c-0.5,0-0.9-0.2-1.3-0.5c-0.3-0.3-0.5-0.8-0.5-1.3c0-0.5,0.2-0.9,0.5-1.3C284.3,22.3,284.7,22.1,285.2,22.1z"/>
	<path class="st0" d="M306.3,12.9l-1.6,1c-1.4-1.8-3.3-2.7-5.6-2.7c-1.9,0-3.5,0.6-4.7,1.8s-1.9,2.7-1.9,4.5c0,1.1,0.3,2.2,0.9,3.2
		s1.4,1.8,2.4,2.3s2.1,0.8,3.4,0.8c2.3,0,4.2-0.9,5.6-2.7l1.6,1c-0.7,1.1-1.8,2-3,2.6c-1.3,0.6-2.7,0.9-4.3,0.9
		c-2.5,0-4.5-0.8-6.2-2.4c-1.6-1.6-2.4-3.5-2.4-5.7c0-1.5,0.4-2.9,1.1-4.2s1.8-2.3,3.1-3c1.3-0.7,2.8-1.1,4.5-1.1c1,0,2,0.2,3,0.5
		c1,0.3,1.8,0.7,2.5,1.2C305.3,11.5,305.8,12.1,306.3,12.9z"/>
	<path class="st0" d="M317.6,9.2c2.4,0,4.4,0.9,6,2.6c1.4,1.6,2.2,3.5,2.2,5.6c0,2.2-0.8,4.1-2.3,5.7c-1.5,1.6-3.5,2.5-5.9,2.5
		c-2.4,0-4.4-0.8-5.9-2.5s-2.3-3.5-2.3-5.7c0-2.2,0.7-4,2.2-5.6C313.1,10.1,315.1,9.2,317.6,9.2z M317.6,11.2
		c-1.7,0-3.1,0.6-4.3,1.9s-1.8,2.7-1.8,4.5c0,1.1,0.3,2.2,0.8,3.2c0.5,1,1.3,1.7,2.2,2.3s2,0.8,3.1,0.8c1.1,0,2.1-0.3,3.1-0.8
		c0.9-0.5,1.7-1.3,2.2-2.3c0.5-1,0.8-2,0.8-3.2c0-1.8-0.6-3.2-1.8-4.5S319.2,11.2,317.6,11.2z"/>
	<path class="st0" d="M329.4,9.6h2v2.7c0.7-1,1.4-1.7,2.2-2.2c1-0.6,2.1-0.9,3.2-0.9c0.8,0,1.5,0.1,2.2,0.4c0.7,0.3,1.2,0.7,1.7,1.2
		c0.4,0.5,0.8,1.2,1.1,2.1c0.7-1.2,1.5-2.2,2.5-2.8s2.1-1,3.2-1c1.1,0,2,0.3,2.9,0.8c0.8,0.5,1.4,1.3,1.8,2.3c0.4,1,0.6,2.4,0.6,4.4
		v8.5h-2.1v-8.5c0-1.7-0.1-2.8-0.4-3.5c-0.2-0.6-0.6-1.1-1.2-1.5c-0.6-0.4-1.3-0.6-2.1-0.6c-1,0-1.9,0.3-2.7,0.9
		c-0.8,0.6-1.4,1.3-1.8,2.3c-0.4,1-0.6,2.6-0.6,4.8v6.1h-2v-8c0-1.9-0.1-3.2-0.4-3.8c-0.2-0.7-0.6-1.2-1.2-1.6
		c-0.6-0.4-1.3-0.6-2.1-0.6c-0.9,0-1.8,0.3-2.6,0.8s-1.4,1.3-1.8,2.3c-0.4,0.9-0.6,2.4-0.6,4.4v6.6h-2V9.6z"/>
</g>
</svg>
